<svg xmlns="http://www.w3.org/2000/svg" id="def-sprite-logo" version="1.1">
	<symbol id="def-sprite-logo-cambia" viewBox="0 0 200 100"><g fill="#FAFAFA"><path d="M81 44.8c0-2.7 1-5 4.5-5 2.6 0 4 1.3 4 3.4v1.6h-2.6v-1c0-1.2-.6-2-1.7-2-1.4 0-1.6 1-1.6 3.3v9.6c0 2.3.7 2.7 1.5 2.7 1 0 1.7-.7 1.7-2.3v-.7h2.4v1.5c0 2-1 3.5-4 3.5-3.3 0-4.4-1.7-4.4-4.7v-9.8zM95.2 52h3.4L97 42.7 95 52zm.3-12h3l4 19.2h-2.7l-1-5h-4l-1 5h-2.6L95.5 40zM105 40h4.4l2.3 14 2.4-14h4.3V59h-2.5v-17L113 59h-2.6l-3-17v17H105M124 57h1.7c1.5 0 1.8-.4 1.8-3.4s-.3-3.3-1.7-3.3H124V57zm0-8.8h1.6c1.6 0 1.7-.4 1.7-3.5 0-2.2-.3-2.7-2-2.7H124v6.2zm-2.6-8.3h4.6c3.3 0 3.8 1 3.8 4.6 0 3.8-.6 4.4-2.4 4.6 2 .5 2.6 1.2 2.6 4.5 0 4-.6 5.5-4.5 5.5h-4V40zM133 59.2h2.6V40H133M142 52h3.4l-1.6-9.3L142 52zm.3-12h3l4 19.2h-2.6l-1-5h-4l-1 5h-2.6l4.3-19.3zM94.7 63.4h-1.5v1h-.4v-2.3h.4v1h1.5v-1h.4v2.5h-.3M96 62h1.7v.3h-1.5v.8h1.4v.4h-1.4v.8h1.5v.3H96M100.4 63.6l-.6-1.2-.6 1.2h1.2zm0 .3H99l-.3.5h-.4l1.3-2.4h.4l1.2 2.5h-.4l-.3-.6zM102 62h.2v2.2h1.4v.3H102M105 62.4h-1V62h2.4v.4h-1v2h-.3M109 63.4h-1.5v1h-.3v-2.3h.3v1h1.6v-1h.4v2.5h-.3M113.6 62.7c0-.3-.4-.4-.8-.4-.3 0-.6 0-.6.4 0 0 0 .3.4.3l1 .2c.3 0 .5.3.5.6 0 .5-.4.8-1 .8-.8 0-1.2-.3-1.2-.8h.3c.2.3.5.5 1 .5.4 0 .7-.2.7-.5 0-.7-2 0-2-1 0-.5.5-.8 1.2-.8.4 0 1 0 1 .7h-.4zM116.2 64.3c.6 0 1-.4 1-1s-.4-1-1-1-1 .4-1 1 .4 1 1 1m0-2.3c1 0 1.3.7 1.3 1.3 0 .6-.3 1.3-1.3 1.3s-1.4-.7-1.4-1.3c0-.6.3-1.3 1.4-1.3M118.3 62h.3v2.2h1.4v.3h-1.7M122.7 62h.3v1.5c0 .7-.4 1-1 1-.8 0-1.2-.3-1.2-1V62h.3v1.5c0 .5.4.8 1 .8.4 0 .7-.3.7-.8V62zM124.8 62.4h-1V62h2.4v.4h-1v2h-.4M127 64.5h.2V62h-.3M129.3 64.3c.5 0 1-.4 1-1s-.5-1-1-1c-.6 0-1 .4-1 1s.4 1 1 1m0-2.3c1 0 1.3.7 1.3 1.3 0 .6-.3 1.3-1.3 1.3s-1.4-.7-1.4-1.3c0-.6.2-1.3 1.3-1.3M133.3 62h.4v2.5h-.5l-1.5-2v2h-.4V62h.5l1.5 2M136.2 62.7c0-.3-.4-.4-.8-.4-.3 0-.6 0-.6.4 0 0 0 .3.3.3l1 .2c.4 0 .6.3.6.6 0 .5-.4.8-1 .8-.8 0-1.2-.3-1.3-.8h.4c0 .3.3.5.8.5s.8-.2.8-.5c0-.7-2 0-2-1 0-.5.5-.8 1.2-.8.5 0 1 0 1 .7h-.3zM151.2 40l.6 2h.2l.6-2v2h.3v-2h-.6l-.5 1.6-.6-1.7h-.4v2h.2v-2zm-1.8 0h.5v2h.2v-2h.5-1.3zM76 51c0 6-4.8 10.5-10.5 10.5C59.7 61.5 55 57 55 51c0-5.7 4.7-10.3 10.5-10.3C71.2 40.7 76 45.3 76 51m2-1.5c0-7-5.6-12.5-12.5-12.5-7 0-12.5 5.6-12.5 12.5 0 7 5.6 12.6 12.5 12.6 7 0 12.5-5.5 12.5-12.5"/><path d="M71.8 51.3c0 3.5-3 6.3-6.3 6.3-3.5 0-6.2-2.8-6.2-6.3S62 45 65.5 45c3.4 0 6.3 2.8 6.3 6.3m2-1.5c0-4.7-3.7-8.4-8.3-8.4-4.6 0-8.3 3.7-8.3 8.4 0 4.6 3.7 8.3 8.3 8.3 4.6 0 8.3-3.6 8.3-8.2"/><path d="M65.5 53.6c-1.2 0-2-1-2-2 0-1.2.8-2.2 2-2.2 1 0 2 1 2 2.2 0 1-1 2-2 2m4.2-3.6c0-2.3-2-4.2-4.2-4.2-2.3 0-4.2 2-4.2 4.2 0 2.3 2 4.2 4.2 4.2 2.3 0 4.2-2 4.2-4.2"/></g></symbol>
    <symbol id="def-sprite-logo-johnson-johnson" viewBox="0 0 200 100"><path fill="#FAFAFA" d="M76 51.6c0 1 1 .8 1 .3.3-.6-.2-1.6-.2-1.6s-.6.4-.7 1.2M62.3 42c0-.7-.4-1.6-1-.5-.5 1-.4 4.5-.4 4.5s1.3-1.3 1.4-4M84 47c-.8-.2-1.3.6-.7 1 .6.7 1.6.3 1.6.2 0 0-.3-1-1-1.3M56 47c-.6-.3-1 .4-.7 1 .4.5 1.5.4 1.5.4s0-1.2-.8-1.5m-6 2.6c.4 1.2.3 4.4-.4 6.2-.5 1.4-1.2 2.8-2.4 3.6-1.3 1-2.2-.6-2-2.3.7-2.6 2.3-5 2.4-5-3-2.2-3.4-6-2-8.7 1-2 3.3-3.2 4.7-3.3.2 0 .2 0 .2.2-1 2-1 3.8-.8 5 0 1.4.3 3.6.3 3.8.4-.4 1-1 1.7-1.4 1.7-1 3-1.4 3-1.4-.2 0-1.4 1-1.4 3 0 2.7 2.4 2.4 3.2 1.3.3-.5.3-1.4.3-1.6 0 0-1.5.2-2.2-.8-.4-.7 0-2.3 1.7-1.7 1 .3 1.2 1.8 1.2 1.8l1-.3.7-.5v-3c0-1 .6-3.2 2-4 1.2-.5 2.2.5 1.6 2.4-.7 2-2.2 3.8-2.2 3.8v3.5s1.6-3 2-3.3c.7-1 2-.8 2 .6 0 1.3-.3 2-.3 3.3 0 .3.3.3.4.2l2.4-4c1-1.5 2-1 2 .3V50c0 .3.2 0 .2 0 .5-.8 1.3-2.2 2-3 .6-1.2 1.8-.8 1.8.6 0 1.2 0 2-.2 3.2 0 .4.2.4.3.2 1.2-1.4 1.5-2.4 2.5-3.8 0-.4.4-.8.5-1 0 0 .3 0 .3.2 0 0 0 .3.2.5l.8 1.8 2.4-1.6c1-.4 1-.5 2.6-.8-.5.2-1.4 1.7-1.4 2.8 0 2.4 2 2.7 3 2 .8-.6.8-2.2.7-2.5 0 0-1.6.7-2.4-.6-.5-.8.3-2 1.6-1.5.8.2 1.3 1.4 1.3 1.4l2.2-1.4c1-.5 1.5 0 1.5 1 0 1.2-.2 2.8-.3 2.8 0 0 1.2-2.3 2-3.2 1.3-1.7 2 0 2 .5 0 1-.3 2-.2 3.5 0 .3.3.3.5.3l.4-.4c.2-.2.5 0 .4.2 0 .3-.5 1-1.3 1.5-.5.4-1.4.2-1.4-.8V48c.2-.2 0-.5-.2-.2-1 1.6-1.8 3.4-2.4 4.4-.2.5-1.2.6-1.2-.3v-4c0-.4 0-.6-.3-.4l-1.4.8c.2.3.4 2.5-1 3.7-1.2 1.2-3.6 1-4.4-.7-.5-1.3 0-3.2.4-3.7l-1.2.7c-.6.3-1 .5-1.3 1 0 0 1 2.3-.3 3.2-1.2.7-2.2 0-2.2-1 0-.7 1-1.7 1-1.7s0-.5-.2-.8l-.3-.7-2.3 3.6c-1 1.3-2 .7-2-.3l.2-3.5c0-.4-.4-.3-.5-.2L69 52.3c-.3.4-1.3.8-1.2-.4v-4s0-.2 0 0c-1.2 1.3-2 3.3-3 4.2-.8 1-1.6.4-1.6-.5V48c0-.4 0-.5-.3 0-1 1.4-1.4 2-2.3 4.3-.3.8-1.3.5-1.3-.4v-4l-.8.5c-.4 0-.5.3-1 .3 0 0 .5 2.7-1.5 3.6-1.5.7-3.2.3-3.8-2-.3-.8 0-2 .2-2.4l-1 .8c-.4.2-.7.4-1 .8m-1.6 1l-.4-3.4c0-1.3-.2-2.7.3-4.2.3-1 1-2 1-2.5-1 .6-2 1.3-3 3.6-.4 1.3-.5 5.3 1.3 7.4l.4-.4.4-.5m-2.3 7.3c0 .8.6 1 1 .7.6-.3 1-1.2 1.3-2.3.6-3 0-4.8 0-5 0 0-2.4 3-2.3 6.6M107.2 45c0 1.6.4 3.8.4 4 .3-.4 1-1 1.7-1.4 1.7-1 3-1.4 3-1.4-.2 0-1.4 1-1.4 3 0 2.7 2.2 2.4 3 1.3.3-.5.3-1.4.3-1.6 0 0-1.6.2-2.3-.8-.5-.7 0-2.3 1.7-1.7 1 .3 1.2 1.8 1.2 1.8l.8-.3.8-.5v-3c.2-1 .6-3.2 2-4 1.2-.5 2.2.5 1.5 2.4-.4 2-2 3.8-2 3.8v3.5s1.7-3 2-3.3c.7-1 2-.8 2 .6l-.2 3.3c0 .3.3.3.4.2l2.5-4c.8-1.5 2-1 2 .3V50c0 .3 0 0 0 0l2-3c.7-1.2 2-.8 2 .6l-.2 3.2c0 .4 0 .4.3.2l2.4-3.8.5-1s.3 0 .3.2l.2.5c.2.6.5 1 1 1.8l2-1.6c1.2-.4 1.3-.5 3-.8-.7.2-1.5 1.7-1.5 2.8 0 2.4 1.8 2.7 3 2 .7-.6.8-2.2.6-2.5 0 0-1.7.7-2.5-.6-.5-.8.3-2 1.6-1.5.8.2 1.3 1.4 1.3 1.4l2.2-1.4c1-.5 1.4 0 1.4 1l-.2 2.8s1.3-2.3 2-3.2c1.3-1.7 2 0 2 .5 0 1-.2 2 0 3.5 0 .3 0 .3.3.3l.8-.8c0-.2.4-.2.3 0 0 .5-1 1.6-1.6 2-.6.4-1.5.2-1.6-.8l.3-3.8c0-.2-.2-.5-.4-.2-1.2 1.6-2 3.4-2.4 4.4-.4.5-1.4.6-1.3-.3v-4c0-.4 0-.6-.4-.4l-1.4.8c0 .3.2 2.5-1.2 3.7-1.2 1.2-3.5 1-4.3-.7-.7-1.3 0-3.2.4-3.7-.7.2-1 .4-1.5.7-.5.3-.8.5-1.2 1 0 0 1 2.3-.3 3.2-1.2.7-2.3 0-2.3-1 0-.7 1-1.7 1-1.7s0-.5-.2-.8c0-.3-.2-.5-.4-.7.2 0-1.7 3.2-2 3.6-1 1.3-2 .7-2-.3v-3.5c0-.4 0-.3-.2-.2-1.2 1.6-1.3 2.4-2.5 4.3-.4.4-1.3.8-1.3-.4v-4s0-.2-.2 0c-1 1.3-1.8 3.3-2.6 4.2-1 1-1.8.4-1.8-.5V48c0-.4 0-.5-.3 0-1 1.4-1 2-2 4.3-.4.8-1.4.5-1.4-.4v-4l-.8.5c-.3 0-.5.3-.8.3 0 0 .2 2.7-1.7 3.6-1.5.7-3.2.3-4-2 0-.8 0-2 .4-2.4-.4.3-.7.4-1 .8-.5.2-.8.4-1 .8 0 1.2 0 4.4-.7 6.2-.6 1.4-1 2.8-2.4 3.6-1.4 1-2.3-.6-2-2.3.6-2.6 2.3-5 2.4-5.2 0 0-1-1-2-1-1.5-.2-2.4.3-2.4.3s0 1-.3 1.3c0 .2-.3.4-.4 0v-1s-2.8.4-3.8-.7c-.8-.8 0-2 1.5-1.8 1 .2 2 1 2 1.2 0 0 0-.8-.3-1.3 0-.3-.2-.6-.4-1l1-.3c.2.5.4.8.5 1.4v1.6c.6 0 1 0 1.5-.2h1.5c-1.7-2-2-4.4-.5-6.8 1-2 3.4-3.3 4.6-3.4.2 0 .3 0 .3.2-1 2-1 3.8-.8 5m-7.5 5.3s-.7-1-1.6-1.2c-.8-.2-1.2.7-.4 1 1.2.7 2 .2 2 .2m33.8 1c0 1 .7 1 1 .4 0-.6-.4-1.6-.4-1.6s-.6.4-.6 1.2m-14-9.5c0-.7-.4-1.6-1-.5-.4 1-.4 4.5-.4 4.5s1.3-1.3 1.4-4m21.7 5c-.5-.2-1 .6-.5 1 .7.7 1.7.3 1.7.2 0 0-.3-1-1-1.3m-27.7 0c-.7-.3-1.2.4-.8 1 .4.5 1.6.4 1.6.4s0-1.2-.8-1.5m-7.5 3.5l-.4-3.3c0-1.3 0-2.7.3-4.2.2-1 .8-2 1-2.5-1 .6-2.2 1.3-3 3.6-.5 1.3-.5 5.3 1.2 7.4l.4-.4.4-.5m-2.2 7.3c0 .8.5 1 1 .7.5-.3 1-1.2 1.2-2.3.5-3 0-4.8 0-5 0 0-2.4 3-2.2 6.6"/></symbol>
	<symbol id="def-sprite-logo-cerner" viewBox="0 0 200 100"><g fill="#FAFAFA"><path d="M107.7 56.8h-3.4c-1.4 0-2.3-.5-2.6-1.8h7.4v-.8c0-3-1.5-5.8-5-5.8-3.2 0-5.3 2.5-5.3 5.5 0 3.2 2.3 5.5 5.5 5.5h1.8l1.7-2.7zm-3.8-6c1.2 0 2 1 2.2 2.3h-4.6c.3-1.3 1-2.2 2.3-2.2zM111 48.6h3v2c.7-1.4 1.7-2.3 3.5-2.2v3c-2 0-3.4 1.3-3.4 4V59h-3V48.6zM140.3 56.8h-3.5c-1.3 0-2.3-.5-2.6-1.8h7.5v-.8c0-3-1.6-5.8-5.2-5.8-3 0-5.3 2.5-5.3 5.5 0 3.2 2.4 5.5 5.6 5.5h1.8l1.7-2.7zm-3.8-6c1.3 0 2 1 2.3 2.3h-4.6c.2-1.3 1-2.2 2.3-2.2zM143.7 48.6h3v2c.6-1.4 1.6-2.3 3.4-2.2v3c-2 0-3.3 1.3-3.3 4V59h-3V48.6zM122.5 53.3c0-1.5.8-2.2 2-2.2 1 0 1.7.8 1.7 2.3v6h3v-7c0-2.4-1.3-4-3.6-4-1.5 0-2.4 1-3 1.8v-1.4h-3v10.6h3v-6zM93.4 56.6c-2.4 0-4-2-4-4.3 0-2.5 1.6-4.4 4-4.4 1.4 0 2.5.5 3.5 1.4l2-2.2C97.5 46 96 45 93.3 45 89 45 86 48.3 86 52.3s3 7 7 7.2h2.6l2-2.8h-4.1zM64.2 48c-3.8 0-6-.4-7.4-1 1.4-2.5 4-4.2 7.2-4.2 2.3 0 4.4 1 6 2.6l4.5-.3c-2.2-3.7-6.2-6-10.5-6-4 0-7.6 2-10 5.2 0 .2-.2.4-.4.6l-.2.6c-.2.5-.4 1-.4 1.7v.2c0 .7.2 1.4.8 2 0 0 1.6 2.3 10.3 2.7 5.4.2 16-1.5 16-1.5l2.4-3.8S69.2 48 64.2 48"/><path d="M76.7 55.6l2.5-3.8s-7.6 1.6-14.5 1.6c-3.6 0-6-.6-7.7-1-1.7-.4-2.8.4-3.2.8-.6.5-.8 1.2-.8 2 0 .7.2 1.2.4 1.7 0 .3.2.4.3.5.5 1 1 1.6 1.8 2.3l.2.2.3.3c1.2 1 2.5 1.8 4 2.3h.2c1.2.5 2.5.7 3.8.7 4.2 0 8-2.2 10.3-6-1.7.5-4.6.8-5.8.8-1.3 1-3 1.5-4.5 1.5-2.8 0-5.3-1.4-6.8-3.6 2 .6 7.3 1 7.3 1 5.8 0 12.2-1.4 12.2-1.4M150.7 48.3h1v.2h-.4v1h-.2v-1h-.3M152.8 48.3h.2v1h-.2v-.7l-.4.4-.4-.4v.8-1l.4.4"/></g></symbol>
	<symbol id="def-sprite-logo-dufl" viewBox="0 0 200 100"><g fill="#FAFAFA"><path d="M135.5 38H117v25h11.5V48.6l-4 4-1.3-1.4 6.2-6.2 6.2 6.2-1.4 1.4-3.7-3.7v14h5c3.3 0 6-2.7 6-6V44c0-3.3-2.7-6-6-6M68.5 45.5h-2.7v10h2.7c1 0 1.8 0 2.5-.8.8-1 .8-2.4.8-4 0-2 0-3.4-.8-4.3-.7-.7-1.5-1-2.5-1"/><path d="M109.2 56.8h-7.7V44.3h1.3v11.3h6.4v1.2zM98 45.5h-6.4V50H97v1.3h-5.4v5.5h-1.3V44.3H98v1.2zm-12.2 7.2c0 2.5-1.8 4.2-4.3 4.2C79 57 77 55 77 52.6v-8.4h1.5v8.3c0 2 1 3 3 3 1.8 0 3-1 3-3v-8.3h1.3v8.4zM72 55.5c-.8 1-2 1.3-3.3 1.3h-4.2V44.3h4.2c1.4 0 2.5.4 3.3 1.3 1 1.2 1 3 1 5s0 3.7-1 5zM60 38c-1 0-2 1-2 2v21c0 1 1 2 2 2h56V38H60z"/></g></symbol>
	<symbol id="def-sprite-logo-enterprise" viewBox="0 0 200 100"><g fill="#FAFAFA"><path d="M112.5 48.3c-.6-.5-1.3-.7-2.2-.7-1.8 0-3 1-3 2.3 0 .5.3 1 .8 1.4.6.5 1.3.8 2.3.8 1 0 1.6-.3 2.2-.8.4-.4.6-1 .6-1.5 0-.7 0-1.3-.5-1.7zm-2 5.5c-1.5 0-2.3-.5-3-1v4H105V46.4h2.4v.8c.8-.5 2-1 3-1 1.7 0 3 .6 4 1.4.8.7 1.2 1.6 1.2 2.5 0 2.2-2 3.8-5.2 3.8zM124.4 53.7h2.6v-7.4h-2.6v7.4zm1.3-8.6c-.5 0-1 0-1.3-.2l-.4-.7c0-.2.2-.4.4-.6.3-.2.8-.4 1.3-.4s1 .2 1.3.4c.2.2.3.4.3.7 0 .7-.7 1-1.6 1zM132.5 54c-2 0-3.2-.5-4.3-1.4v-.2l1.7-1c.7.6 1.3 1 2.5 1 .8 0 1.4-.2 1.7-.5l.2-.4c0-.6-1.2-.8-2-1h-.3c-1.7-.2-3.6-.7-3.6-2.2 0-.5.2-1 .7-1.3 1-.5 2.4-1 4-1s3 .5 3.7 1.3l-1.7 1h-.2c-.6-.4-1.2-.7-2-.7s-1.5.3-1.5.7c0 .6 1.2.8 2 1h.5c1.7.2 3.5.7 3.5 2.2 0 1.8-2.7 2.4-4.8 2.4M74.7 53.6v-4.3c0-.5 0-1-.5-1.2-.5-.3-1.2-.3-1.7-.3-1.7 0-2.2.8-2.2 2.2v3.6h-2.5v-7.3h2.5v.8c.7-.5 1.7-1 3-1s2.4.4 3 1c.7.5 1 1.2 1 2v4.6h-2.6M78 47.8v-1.5h1.6v-2h2.6v2H85v1.5H82V51c0 .8.3 1.3 1.5 1.3.4 0 1 0 1.2-.2v1.6c-.6.2-1.4.2-2 .2-2.7 0-3.4-.8-3.4-2.5v-3.5H78M93.7 49h-6c.2-.4 1.4-1.5 3.2-1.5 1.7 0 2.6.7 3 1.3.2.3 0 .3-.3.3m0 2.5c-1 .5-1.4.7-2.5.7-1.2 0-2.3-.3-3-1l-.3-.6h7.8c.5 0 .7-.2.7-.7 0-1-.4-2-1-2.6-1-1-2.7-1.4-4.5-1.4-2 0-3.6.6-4.6 1.6-.7.7-1 1.4-1 2.3 0 .8.3 1.6 1 2.3 1 1 2.7 1.5 4.6 1.5 1 0 2 0 2.7-.4.4 0 .7-.3 1-.5l1-.8.4-.6h-2.3M104 46.2h-1c-1 0-2.3.7-3 1.3v-1.2h-2.5v7.3h2.5V50c0-1.4 1-2 2.8-2h1.2v-1.8M123.3 46.2h-1c-1 0-2.3.7-3 1.3v-1.2h-2.5v7.3h2.5V50c0-1.4 1-2 2.8-2h1.3v-1.8M146.2 49h-6c.2-.4 1.4-1.5 3.2-1.5 1.8 0 2.7.7 3 1.3.3.3 0 .3-.2.3m0 2.5c-1 .5-1.4.7-2.5.7-1.2 0-2.3-.3-3-1l-.3-.6h8c.4 0 .6-.2.6-.7 0-1-.4-2-1-2.6-1-1-2.7-1.4-4.5-1.4-2 0-3.6.6-4.6 1.6-.8.7-1 1.4-1 2.3 0 .8.2 1.6 1 2.3 1 1 2.6 1.5 4.5 1.5 1 0 2 0 2.7-.4.4 0 .7-.3 1-.5l1-.8.4-.6h-2.4M56 48.4c.8-1 2.3-1.7 4-1.7 1.5 0 3 .5 3.5 1.5v.3l-.3.2H56v-.3m10.4.5c-.4-2-2.8-4-6.5-4h-.2c-3.3 0-5.7 1.6-6.4 3.4v.3H47v.7h16.7c1 0 1 0 1.2-.2 0-.7-1.4-3.2-5.2-3.2-3.2 0-4.6 2-5 2.4v.3h-.4v-.3c.4-.7 1.8-2.8 5.4-2.8 4 0 5.5 2.6 5.6 3.5 0 .4 0 .5-.2.6 0 0-.3.2-1.5.2H47v.7h17.5c1 0 1.5 0 1.8-.3.2-.3.2-.6 0-1.3M59.7 53.2s3 0 4.4-1.4h-1.4c-.6.5-2 .6-2.8.6-1.5 0-3-.6-3.6-1.5H55c.6 1 2.2 2.2 4.7 2.2"/><path d="M64.6 51.8c-1.5 1.8-4.6 1.8-5 1.8-2.6 0-4.4-1.4-5-2.7h-1.2c.7 1.7 3 3.4 6.4 3.4 3.6 0 5-1.2 6-2.5v-.2h-1.2z"/></g></symbol>
	<symbol id="def-sprite-logo-genetec" viewBox="0 0 200 100"><path fill="#FAFAFA" d="M52.2 50.6V49s.4-5-8.7-5c-8.4 0-8.8 5-8.8 5v8.5s.7 4.8 8.8 4.8c7 0 8.7-3.4 8.7-3.4v-6.3h-8.7V55h4v4s0 1-4 1c-4.5 0-4.2-2.5-4.2-2.5V49S39 46 43.5 46s4 2.7 4 2.7v1.6h4.7zM68 50V62h3.7v-9s0-1.6 3-1.6 3 1.5 3 1.5v9h3.7v-9.4s0-3-6.7-3c-2.2 0-3.7.3-4.7.8h-2zM97.2 50V62h3.7v-9s0-1.6 3-1.6 3 1.5 3 1.5v9h3.6v-9.4s-.2-3-6.7-3c-2.3 0-3.8.3-4.8.8h-2zM124.7 53v1.3h6V53s0-1.6-3-1.6-3 1.6-3 1.6zm9.7 3.7h-9.7V59s0 1.4 3 1.4 3-1.5 3-1.5v-1h3.7v1s.3 3.3-6.7 3.3S121 59 121 59v-6s-.2-3.6 6.7-3.6c7 0 6.7 3.5 6.7 3.5v3.7zM149 54.5V53s.3-3.6-6.7-3.6-6.6 3.5-6.6 3.5v6s-.3 3.3 6.6 3.3c7 0 6.7-3.4 6.7-3.4v-1.6h-3.7V59s0 1.4-3 1.4-3-1.5-3-1.5v-6s0-1.6 3.2-1.6c3 0 2.8 1.5 2.8 1.5v1.5h3.7zM111.4 50h1.2v-3h3.7v3h4v1.8h-4V59s.2 1.8 3.8 1.3V62c-3 .5-7.4.2-7.4-3v-7.2h-1.2v-2zM150.5 44.2h3.6v5.3l3-.3c6.7 0 6.8 3 6.8 3V62H160v-9s0-1.6-3-1.6-3 1.5-3 1.5v9h-3.5V44.3zM86.3 53v1.3h6V53s0-1.6-3-1.6-3 1.6-3 1.6zm9.7 3.7h-9.7V59s0 1.4 3 1.4 3-1.5 3-1.5v-1H96v1s.3 3.3-6.7 3.3-6.6-3.4-6.6-3.4v-6s-.3-3.6 6.6-3.6c7 0 6.7 3.5 6.7 3.5v3.7zM57 53v1.3h6.2V53s0-1.6-3-1.6-3 1.6-3 1.6zm9.8 3.7H57V59c.2 0 0 1.4 3 1.4 3.2 0 3.2-1.5 3.2-1.5v-1h3.6v1s.3 3.3-6.7 3.3c-6.8 0-6.5-3.4-6.5-3.4v-6s-.3-3.6 6.6-3.6c7 0 6.8 3.5 6.8 3.5v3.7z"/></symbol>
	<symbol id="def-sprite-logo-hearst" viewBox="0 0 200 100"><path fill="#FAFAFA" d="M102.4 49.2c-2.5 0-4 4-4 6 0 1.5.4 2 1 2 1.2 0 2.7-2.2 2.7-2.3 0 0 0-.3-.2-.3s-.6 1.2-1.6 1.2c-.6 0-1-.5-1-1.4 0-.8 1.4-5 2.5-5 .5 0 .7 1 1.4 1 .4 0 .7 0 .7-.6 0-.7-.8-.8-1.3-.8M108 49.2c-1.5 0-3.7 2.2-3.7 5.3 0 1 .3 2.6 1.5 2.6 2 0 3.8-2.7 3.8-5 0-1.7-.5-2.8-1.6-2.8m-2 7.5c-.8 0-1-.6-1-1 0-1.3 1.4-6 3-6 .6 0 .8.5.8 1 0 1.2-1.5 6-3 6M116.3 49.2c-1 0-2.7 3.5-3.2 4.5l.3-1 .6-3c0-.3-.2-.5-.6-.5-.7 0-2.6 2.7-2.6 3 0 0 0 .2.2.2s1-1.8 1.5-1.8c.2 0 .2.2.2.3v.3l-1.4 5v.3c0 .3.2.4.4.4 0 0 .2 0 .3-.2.3-.6 3-6.5 3.8-6.5.3 0 0 1 .5 1 .7 0 .7-.8.7-1.2 0-.5 0-.8-.7-.8M120.6 46.8c-.3 0-.4 0-.5.5l-.6 2-1.4.4-.2.3h1.5l-3 9.5c0 .5 0 .7-.4.8-.5.2-1 0-1 .4l2 .2h1.6c.3 0 .4 0 .4-.2s-1-.3-1.3-.5c0 0-.3-.2-.3-.4v-.3l1-2.8h.5c3 0 4.8-4.4 4.8-6.2 0-1-.4-1.6-2-1.6h-1.3l.6-2c0-.3 0-.4-.4-.4m-1 9.6c-.7 0-.8-.3-.8-.8V55l1.4-4.6c.2-.7.3-.7 1-.7 1 0 1.4.5 1.4 1.3 0 1-1.5 5.4-3 5.4M128.5 49.2c-1.5 0-3.7 2.2-3.7 5.3 0 1 .3 2.6 1.5 2.6 2 0 3.8-2.7 3.8-5 0-1.7-.4-2.8-1.5-2.8m-2 7.5c-.8 0-1-.6-1-1 0-1.3 1.4-6 3-6 .6 0 .8.5.8 1 0 1.2-1.5 6-3 6M136.8 49.2c-1 0-2.7 3.5-3.2 4.5l.2-1 .6-3c0-.3 0-.5-.5-.5-.8 0-2.7 2.7-2.7 3 0 0 0 .2.2.2s1-1.8 1.5-1.8c.2 0 .2.2.2.3v.3l-1.4 5v.3c0 .3.2.4.4.4 0 0 .2 0 .3-.2.3-.6 3-6.5 3.8-6.5.3 0 0 1 .5 1 .7 0 .7-.8.7-1.2 0-.5 0-.8-.7-.8M144 49.4c-.6 0-.7 0-1 .5 0 .2-.2.3-.4.3h-.7c-2.3 0-5.7 3.3-5.7 5.7 0 .4.2 1 .8 1 1.2 0 2.8-1.3 3.7-2.4l.8-1c-.2.7-1 2.5-1 3 0 .4 0 .5.4.5.8 0 3-2.4 3-2.7-.3 0-1.5 1.6-2 1.6-.3 0-.3 0-.3-.2v-.3l2.5-5.5v-.4c0-.2 0-.2-.3-.2m-6 6.5c-.4 0-.6-.4-.6-.7 0-1.6 2.8-4.6 4.4-4.6.5 0 .7.2.7.5 0 1.3-3.2 4.7-4.4 4.7M148.8 47.5c-.3 0-.5 0-.5.2l-.7 1.8h-1c-.3 0-.4 0-.4.3 0 .2 0 .3.3.3h1l-2 6s-.3.4-.3.7c0 .2.2.3.4.3 1 0 3.3-2.3 3.3-3h-.2c-.2 0-1.2 1.6-2 1.6-.2 0-.2 0-.2-.2 0 0 0-.4.2-.6l1.7-4.7h1.4c.2 0 .2 0 .2-.2s0-.3-.2-.3h-1.3l.5-1.4v-.3s0-.2-.4-.2M153.8 45c-.3 0-.7.4-.7.8s.5.7.8.7c.4 0 .8-.3.8-.7 0-.4-.4-.8-.8-.8m0 4.2c-.8 0-2.3 1.5-2.6 1.7 0 0-.3 0-.3.3v.2c.3 0 1.3-1 1.6-1h.2c0 .4-.2.7-.4 1.2l-2 4.5c-.2 0-.3.3-.3.4 0 .3.3.4.7.4 1 0 3-1.7 3-2v-.2c-.2 0-.4.3-1 .6-.5.4-.7.5-1 .5v-.3c0-.2 0-.4.2-.7l2-4.4.2-1s0-.4-.4-.4M159 49.2c-1.4 0-3.7 2.2-3.7 5.3 0 1 .3 2.6 1.5 2.6 2 0 3.8-2.7 3.8-5 0-1.7-.5-2.8-1.5-2.8m-2 7.5c-.8 0-1-.6-1-1 0-1.3 1.4-6 3-6 .7 0 .8.5.8 1 0 1.2-1.4 6-3 6M167.8 49.2c-1.7 0-3.4 3.5-3.7 4v.3h-.2c0-.3 1-2.8 1-3.5 0-.5 0-.8-.4-.8-.8 0-2 1.2-2 1.6-.2.2-.4.4-.4.6v.2c.3 0 1.2-1.4 1.6-1.4.2 0 .3 0 .3.2l-.3.7-1.7 5-.2.6c0 .2 0 .4.4.4.3 0 .5-.3.6-.7l1-2c2.3-3.7 3-4.5 3.6-4.5.2 0 .4.2.4.5 0 .2 0 .5-.2.8l-2 4.8-.4.8c0 .2.2.4.5.4 1.3 0 3-1.8 3-2.2h-.3s-1 1-1.6 1h-.2c0-.2 0-.4.2-.5l1.6-3.6c.2-.4.5-1 .5-1.5 0-.6-.5-1-1.2-1M31 48.2h-3.2v3h-1.5v-3h-3v8.6h3v-3.2h1.5v3.2h3M43 48.2h-6.3v8.6H43v-2.2h-3v-1h2.8v-2.3h-3v-1H43M54.7 48.2h-4.3L47.7 57h3l.5-1.5h2.4L54 57h3.3L54.7 48zm-3 5l.7-3.3.7 3.3h-1.4zM66.2 48.2H62v8.6h3v-3h.4c.7 0 .8.3 1 1.2v.6l.3 1.2H70c-.3-.6-.4-1-.4-1.5v-1c-.3-1.2-.6-1.7-1.7-2 1-.2 1.6-1 1.6-2 0-1.7-1-2-3.4-2m-1 3.4V50h.2c.7 0 1 .3 1 1 0 .4-.3.7-1 .7M78.3 48c-2.4 0-3.7 1-3.7 2.7 0 1.3.6 2 2 2.4 1 .4 1.7.5 2 .8.3 0 .5.3.5.6s-.2.6-.7.6c-.6 0-.8-.3-.8-1h-3v.4c0 1.6 1.3 2.6 3.7 2.6 2.4 0 3.8-1.2 3.8-3 0-1.6-1-2.2-2.8-2.7-1-.3-1.7-.3-1.7-1 0-.2.3-.5.7-.5.5 0 .7.3.8.8h2.7v-.2c0-1.5-1-2.4-3.4-2.4M93.3 48.2H86v2.3h2v6.3h3.3v-6.3h2"/></symbol>
	<symbol id="def-sprite-logo-jiffy-lube" viewBox="0 0 200 100"><g fill="#FAFAFA"><path d="M100.8 29.6l-2.3 12c-.2 1.3-1 1.8-2 1.8s-1.7-.6-2-1.4h-4.2c.3 3 3 5.3 6.2 5.3s5.7-2 6.2-5.2l2.3-12.4h-4.2z"/><path d="M94.6 41c.2-.8 1-1.4 2-1.4h1.3l.7-4h-2.2c-3.2 0-6 2.4-6.2 5.4h4.3zM104 39.6h2l-.4 2.2 5.2-4.2-3.6-4-.4 2h-2"/><path d="M99.4 26c-6.6 0-12 5.5-12 12.3 0 6.8 5.4 12.4 12 12.4 6.7 0 12-5.6 12-12.4 0-6.8-5.3-12.3-12-12.3m0 25.7c-7.2 0-13-6-13-13.4 0-7.3 5.8-13.3 13-13.3s13 6 13 13.3c0 7.4-5.8 13.4-13 13.4M65.6 60.8c-1.2 0-2-1-2-1.8 0-1 .8-1.8 2-1.8s2 .8 2 1.8-.8 1.8-2 1.8zM61 75c1 0 1.7-.3 2-.7.6-.6 1-1.4 1-3.8V62h3.3v9.4c0 2.4-.5 4-1.5 5s-2.7 1.4-4.5 1.4L61 75zM70 73h3.6V62H70v11zM72 60.7c-1.2 0-2-1-2-1.8 0-1 1-1.8 2-1.8 1.3 0 2 .8 2 1.8s-.7 1.8-2 1.8zM96.6 62l-1.4 5.3-.6 2-.6-2-1.8-5.2h-4.9v-.4c0-1 .5-2 1.6-2 .4 0 .8 0 1 .2V57h-1.6c-1 0-2.2 0-3 1-1 1-1.5 2.4-1.5 3.7v.4H80.2v-.4c0-1 .5-2 1.7-2 .4 0 .8 0 1 .2l.2-2.7h-1.8c-1 0-2.2 0-3 1-1 1-1.5 2.4-1.5 3.7v.4h-1.5v2.7H77V73h3.4v-8.3H84V73h3.3v-8.3h2l3.2 7.2.2.6s0 .3-.2.4c-.3.6-1 1.2-1.5 1.4-.5.3-1 .4-1.5.5l.7 2.8c1 0 2.2-.4 3.4-1.4 1.3-1 2.4-2.6 4.3-7.6l2.4-6.7h-3.8zM103.3 73h2V57.2h-2M116.2 70v3h-1.6V71c-.6.8-1.7 2-3.6 2-1.7 0-3.6-1-3.6-4.7v-6.2h2V68c0 2.2.5 3.6 2.2 3.6 1.3 0 2.2-1 2.5-1.8.2-.3.3-.6.3-1v-6.5h2V70zM120.4 68.6v.7c.5 1.4 1.6 2.3 3 2.3 2 0 3.2-1.6 3.2-4 0-2.2-1-4-3.2-4-1.3 0-2.5 1-3 2.3v2.7zm-2-11.3h2V64c.7-1.2 2-2 3.6-2 2.7 0 4.5 2.2 4.5 5.4 0 4-2.4 5.7-4.7 5.7-1.6 0-2.8-.5-3.6-1.8V73h-1.8V57zM137 66.5c0-1.2-.4-3-2.6-3-2 0-2.8 1.7-3 3h5.7zm-5.5 1.4c0 2.6 1.7 3.6 3.6 3.6 1.4 0 2.3-.2 3-.5l.3 1.5c-.6.3-1.8.6-3.5.6-3.2 0-5.2-2-5.2-5.2 0-3.3 2-5.8 5-5.8 3.4 0 4.3 3 4.3 5 0 .4 0 .7-.2 1h-7.3zM140.3 63.3h.7c0-.3 0-.3-.3-.4-.3-.2-.4-.3-.4-.5 0-.3.2-.4.5-.4h.3v.3h-.5c0 .3 0 .3.3.4.2 0 .4.2.4.5 0 .2-.2.4-.6.4h-.3v-.3zM142.6 63v-.7s0 .3-.2.5l-.2.8h-.2l-.2-.8c0-.2 0-.4-.2-.5v1.2h-.2V62h.3l.3.8v.5l.3-.5.2-.7h.3v1.6l-.2-.7z"/></g></symbol>
	<symbol xmlns="http://www.w3.org/2000/svg" id="def-sprite-logo-kaiser" width="200" height="100" viewBox="0 0 200 100"><path fill="#FAFAFA" d="M96.6 33l1.3 9.4 1.3-9.4c-.8-.3-2-.3-2.7 0zm-1.2.6c-.7.6-1.3 1.4-1 2.4l2.3 6.5-.5-9.4-.8.6zm-4.7.8l4.7 8.4c-.5-2.3-1-6-2-7.2-.8-1.3-2.7-1.2-2.7-1.2zM88 35.8l6.3 7.4-4-8.7c-1 0-2 .5-2.4 1.3zm13.3 2l-1 5 4-7c-1.3 0-2.6.6-3 2zm3.4-2l-3.4 7.6 6-6.5c-.7-.8-1.6-1-2.6-1.2zM87 39.2l6.3 4.8-5.6-8c-.5 1-.7 2-.6 3.2zm21-1.4l-.5-.7-5.2 7 6-4.5c0-.6 0-1.2-.3-1.7zm-21 4.6l5.5 2.5c-1.8-2-3.6-3.6-5.4-5.4v2.8zm21.3.2V40l-5.2 5c2-.7 3.5-1.6 5.3-2.4zM87 45l5 1-5-3.2v2zm21.3 0v-2l-4.6 3 4.6-1zM87 47.5h5l-5-2v2zm21.3 0v-2l-4.4 2h4.3zm-1.7-14c0-3-4-3-4 0 0 2.6 4.2 2.7 4 0zM93 31.7c0-3-4.4-2.7-4.2 0-.2 3 4.4 3 4 0zm5 .6c1.6 0 2.2-1.2 2.3-2.3 0-1.7-1-2.4-2.4-2.4s-2.5.7-2.4 2.5c0 1 .4 2.4 2.3 2.4zm2.4 1.2l-.8-.5-.5 9.5 2.5-6.5c.2-1-.4-1.8-1-2.4zM57.2 56l1 3h-2l1-3zm1.4 4.2l.7 2h1.4L58 55h-1.5L54.3 61l-2-2.7L55 55h-1.5L51 58.3V55h-1.4v7.3H51v-3.6l2.6 3.6H55l1-2h2.6zM75.4 58v-2h1.2c1 0 1.3.3 1.3 1s-.5 1-1.4 1h-1.2zm0 1.2h.7l2 3h1.5l-2-3 1-.6c.4-.4.7-1 .7-1.6 0-.7-.3-1.2-.7-1.6-.5-.4-1-.5-2.2-.5h-2v6.3h-4V59h2.2v-1h-2.3v-2H73v-1h-4v7.3h6.4v-3zm-7.3 1c0-1-.6-1.7-2-2.2-1-.4-1.4-.7-1.4-1.3 0-.4.5-1 1.4-1 .6 0 1.3.3 1.6.5v-1c-.3-.3-1-.4-1.6-.4-1.6 0-2.7 1-2.7 2 0 1.2 1 1.8 2 2.2 1 .4 1.5.7 1.5 1.3 0 .6-.6 1-1.5 1-.6 0-1.5 0-2-.5V62c.4.2 1.2.5 2 .5 2 0 2.8-1 2.8-2.3zm-7 2h1.4V55H61v7.3zM111.5 59l1-3 1 3h-2zm.3-4.2l-2.6 7.5h1.3l.7-2.2h2.7l.6 2.3h1.4l-2.6-7.5h-1.6zm9.5 5.8l-3-5.8h-1.8v7.5h1.3v-5.6l3 5.6h1.7v-7.5h-1.2v5.8zm24.5.6h-3v-2h2.2V58h-2.2v-2h2.8v-1.2h-4v7.5h4.2v-1zM134 54.8h-.2v6l-3-6H129v6.4h-4v-2h2.4V58H125v-2h3v-1.2h-4.2v7.5h6.4v-5.7l3 5.7h1.8V56h2.3v6.3h1.3V56h2.2v-1.2H134zM96.5 58v-2h1c1 0 1.5.3 1.5 1s-.4 1-1.4 1h-1zm3 .6c.4-.4.8-1 .8-1.6 0-.7-.4-1.3-.8-1.6-.4-.4-1-.6-2.2-.6h-2v6.4h-4v-2h2.2V58h-2.3v-2H94v-1.2h-4v7.5h6.5V59h.6l2 3.3h1.5l-2-3.3c.5 0 .8-.2 1-.4zm-13-.5h-1v-2h1c1 0 1.4.4 1.4 1 0 .7-.6 1-1.5 1zm2-2.6c-.5-.4-1-.6-2.2-.6H84v7.5h1.4v-3h1c1 0 1.6-.2 2-.6.4-.4.8-1 .8-1.7s-.3-1.2-.8-1.6zm60 4.8v-.7h.4s.4 0 .4.3c0 .4-.3.4-.6.4h-.4zm0 .3h.3l.6 1h.4l-.7-1c.5 0 .8-.2.8-.7 0-.4-.3-.6-1-.6h-.8v2.3h.4v-1zm.3 2c1 0 2-1 2-2.2 0-1-1-2-2-2s-2 1-2 2c0 1.2 1 2 2 2zm-1.6-2.2c0-1 .7-1.6 1.6-1.6 1 0 1.7.7 1.7 1.6 0 1-.7 1.7-1.7 1.7s-1.6-.7-1.6-1.7zm-42.2 0l-1.3-5.5h-2.3v7.5h1.3V56l1.6 6.3h1.4l1.6-6.4v6.3h1.2v-7.5h-2.2l-1.3 5.5z"/></symbol>
	<symbol id="def-sprite-logo-lionsgate" viewBox="0 0 200 100"><path fill="#FAFAFA" d="M59 62.5h2.8v-12h-3M48 50.6v12h9.2V60h-6.4v-9.4M70.4 60.2c-2 0-3.7-1.7-3.7-3.7s1.7-3.7 3.7-3.7 3.7 1.6 3.7 3.7c0 2-1.5 3.7-3.6 3.7m0-10.2c-3.6 0-6.5 3-6.5 6.5 0 3.6 2.8 6.5 6.4 6.5 3.6 0 6.5-3 6.5-6.5 0-3.6-3-6.5-6.6-6.5M89.8 50.6H87v7.2l-5-7.2h-3v12h3v-7.2l5.3 7h2.5V50.7M97.8 55.4c-1-.3-2.6-.7-2.6-1.8 0-.6.7-1 1.6-1 1.3 0 3 .6 4 1.3v-2.7s-2-.8-4-.8h-.3c-2.2 0-4.4.7-4.4 3.3 0 2 2 3.5 3.6 4 1.7.6 2.5.6 2.5 1.8 0 .5-.4.7-1.2.7-1.2 0-3-.6-4.4-1.4v-.2 2.7s2 1 4.2 1.2h.2c2.2 0 4.6-1 4.6-3.4 0-2.7-2-3.5-3.6-4M115.5 55.8H109v2.5h3.6c-.6 1-1.8 2-3.2 2-2 0-3.7-1.8-3.7-3.8 0-2 1.6-3.7 3.7-3.7 1.4 0 2.6.8 3.2 2L115 53h-.2c-1-1.8-3-3-5.4-3-3.6 0-6.5 3-6.5 6.5 0 3.6 2.8 6.5 6.4 6.5 3.6 0 6-3 6-6.5v-.7M120.5 57.5L122 54l1.4 3.5h-3zm3-7H120.5l-5 12h2.8l1-2.5h5l1 2.4h3l-5-11.8zM137.3 50.6H127V53h3.8v9.4h2.8V53h3.8v-2.4M147.5 60H142v-2.3h5.3v-2.5H142v-2h5.5l1-2.6H139v11.8h9.5"/></symbol>
	<symbol id="def-sprite-logo-mammouth" viewBox="0 0 200 100"><path fill="#FAFAFA" d="M75 69l-.3-1.4c-.2-1.2-.4-2.5-.8-3.4V64c-.2 0-.2 0-.2-.2s0-.4-.2-.5V63h-.2l-.6-.4h-.2-.2-.3-.2v.2h-.2V63.5c-.2 0-.2 0-.2.2v.2l-.4 1-.4 1v.3l-.2.4c0 .2-.2.3-.3.5v.4h-.2v.4h-.2v.5h-.2v.3l-.2.2v.2c-.2 0-.3.4-.5.6v.3c-.2 0-.4.5-.7.6-.3 0-.4-.5-.5-.7 0-.6-.3-1.2-.4-1.7V68v-.2-.3l-1-2.7v-.2l-.4-1v-.2-.2h-.2V63l-.2-.2v-.2L65 62l-.2-.2s0-.2-.2-.3c0 0-.2 0-.2-.2H64l-.4-.2h-.3-.2l-.4.3h-.2v.2h-.2V63l-.2.2v.7l-.2.2v.8c-.2.2 0 .2 0 .2s-.2 0-.2.2v1.1h-.2V68c-.2.2-.2.5-.2.7v.4s-.2 0-.2.3v1.1c-.2 0-.2.2-.2.2V72s-.2 0-.2.2v.7h.2v.2l.2.2.4.2H62.7v-.2h.4V73c.2-.2.2-.8.2-1.2v-1.4l.2-1.6v-2l.3-1c0-.4 0-.8.2-1 .3.2.4.6.5 1 .6 1.6 1 3.4 1.5 5.2l.3 1c0 .5.2 1 .4 1 0 .4.8.7 1.2.6l.5-.2.5-.8.5-1 .8-1c0-.3 0-.5.2-.6 0-.2 0-.3.2-.5l.4-1 .3-.3.8-1.8c.2-.2.2-.6.4-.6.3.3.3.8.4 1v1l.3 2c.2 0 .2.2.2.4v.5l.3.6v.2l.2.2v.2h.2v.2h.2l.2.2h.7l.4-.7c0-.6-.3-1-.4-1.4L75 69m9 2.8v-.3-.5c-.2 0-.2-.2-.2-.3 0-.2 0-.4-.2-.5v-.3-.5-.4s0-.2-.2-.3v-.3-.3c0-.3-.2-.5-.3-.7v-.6-.3s-.2 0-.2-.2l-.2-.2h-.2v-.2H82v-.2H82v-.2-.2-.2h-.2v-.2c-.2 0-.2 0-.2-.2h-.2l-.2-.2H81h-.2-.4-.2c-.2 0-.4 0-.5.2h-.3v.2H79v.2H79v.2s-.2 0-.2.2l-.2.2v.2h-.2v.2s0 .2-.2.3l-.3 1c-.2 0-.3.2-.3.3v.2c-.2 0-.2.2-.2.2v.5l-.2.3v.5l-.2.2v3l.6.4h.2l.5.2h.5c.2 0 .2-.2.3-.2.3 0 .3-.2.4-.3.2 0 .2-.2.3-.3l.3-.4.2-.2.8-1.3c0-.2 0-.4.2-.5l.3-.3c.2 0 .2 0 .2.2v.3l.2.2v1l.3.3v.2h.2l.5.5h1V72 72v-.2m-3.6-3.5l-1 1.6c0 .2-.2.3-.3.4h-.2c0-.6.2-1.2.4-1.8 0-.3.3-.7.4-1l.4-.7h.4c.2 0 .3.2.3.3 0 .4 0 .7-.3 1m40.2-1.2v-.2-.2c-.2 0-.2 0-.2-.2s0-.3-.2-.4c-.3-.5-.8-1.2-1.5-1.4h-.2-.2-.2c-.3 0-.5.2-.6.3h-.4-.3-.2-.2v.2h-.2v.2s-.2 0-.3.2v.2l-.2.7-.2.6-.5 2.3v.8c-.2 0 0 0 0 0v.2c-.2 0-.2 0-.2.2v.8s0 .2.2.2c.3 1 1 1.4 2.2 1.2.3 0 .6-.2 1-.4h.2V72h.3s0-.2.2-.2v-.2h.2v-.2h.2v-.2h.2V71h.2V71c.2 0 .2-.2.3-.3v-.2-.2h.2V70h.2v-.3-.4c.2 0 .2 0 .2-.2v-.3-.8-.6-.3m-1.4 1.2v.3c0 .3-.3.6-.5 1l-1 1-.4.3c-.3 0-.7.2-.8 0v-.5V69c.2-.5.4-1.4 1-1.6 0-.2.3 0 .5-.2l.3-.3c0-.3 0-.6.2-.7.3 0 .7.5.7.7v1.2M127 65c-.7-.2-1.3 0-1.5-.3v-.2-.2-.5-.2-.2c0-.2 0-.4-.2-.5v-.2l-.4-.2h-.2-.4-.2-.2-.2l-.2.2s0 .2-.2.3V65h-.2-.2c0 .2 0 .2-.2.2h-.2l-.3.3h-.2v1c0 .2.2.5.4.6.3.2.6.3.7.5V69c0 .6 0 1 .2 1.4v.7h.2V72h.2v.2c.3.3.5.6.8.7l.5.2h1.5s0-.2.2-.2c0 0 .2 0 .3-.2l.4-.4h.2V72h.2v-.2-.2h.2v-.2-.3-.2h-.2-.2-.2-.3v.2h-.3c-.3.2-.6.3-1 .2-.2 0-.4-.3-.5-.5l-.3-1.5v-.3-.3-.2-.2-.2-.2-.2-.2c0-.3 0-.5.2-.6l.4-.2c.3 0 .5-.3.8-.4h.5c.2-.2 0-.3.4-.5H128v-.2l.2-.2V65c0-.2-1 0-1.3 0M98 72V72h-.2v-.2h-.2v-.2h-.2v-.2l-.2-.2V71v-.2-.3-.2-.2-.3H97v-.2-.2-.2-.2-.2-.3c-.2 0-.2-.2-.2-.3v-.2-.3-.2l-.4-.8H96v-.2H96h-.2-.2c-.2 0-.3-.2-.4 0H95c-.2 0-.3.3-.4.4v.2h-.2v.2H94v.2c-.2 0-.2.2-.2.3l-.2.2-.3.3v.2h-.2v.2H93c-.2-.3 0-.6 0-.8-.2-.4-.3-.6-.3-1v-.8l-.4-.5v-.4s0-.2-.2-.2v-.3h-.2v-.2h-.2v-.2h-.2H90.7V64h-.2-.2v.2H90 90h-.2v.2h-.2v.2l-.3.5v.2l-.2.4v.5l-.4.6L88 68c0 .3 0 .5-.2.7v.2h-.2-.2v-.2-.6-.2-.4-.6-.2-.2-.2-.4-.4-.2-.2c-.2 0-.2-.2-.3-.3v-.3h-.4-.8c0 .2-.2.2-.2.2v.2h-.2v5c.2 0 .2 0 .2.2v.4l.6 1.2h.2l.4.2H87.8c.2 0 .4-.2.5-.3.2 0 .2-.2.2-.3l.2-.2v-.2l1-1.4v-.7l.5-1.2v-.6l.2-.3V67c.2 0 .2-.2.3-.2h.2v.2l.2.5v2.1c.2.3.2.7.2 1v1.4h.2v.2h.2c0 .2 0 .2.2.2h.2l.2.2h.8v-.2h.2s0-.2.2-.2V72l.3-1 .6-1 .4-.5h.2c0-.2 0 0 0 0v.4c.2.3.2.8.3 1.2 0 .5.2.8.4 1.2.2.3 1 .8 1.3.8h.2c.2 0 .2 0 .2-.2h.2v-.2c.2 0 .2-.2.2-.2v-.2-.2m41-1.2c-.2-.2-.6-.2-.8-.2-.4-.2-.6-.8-.8-1.4 0-.3 0-.5-.2-.8 0-.3 0-.6-.2-1l-.3-.4s0-.3-.2-.4v-.2l-.3-.2c0-.2-.2-.2-.2-.2h-.2-.2V66H134.4h-.2-.2-.2-.2l-.7.5-1 1.4c-.2 0-.2 0-.5.4-.2 0 0 0 0 0h-.2V68v-.2-.2-.5-.2-.2-.2-.4-.3-.3-.2-.2-.4-.2-.4-.3-.3-.3-.3-.2-.2-.2-.2l-.2-.3h-.3v-.2h-.5-.3c-.2 0-.2 0-.3.2l-.2.3V67.5s-.2 0 0 0l-.2.2V72s0 .2.2.2v.2h.4c0 .2 0 .3.2.3h1.1c.3-.3.3-.7.4-1 0-.4.2-.5.4-.7l.4-.5c0-.2.2-.3.3-.5 0-.2.3-.3.4-.4.4-.5.7-1 1.2-1.4h.2c.2-.2.2 0 .2-.2 0 0 .2 0 .2.2v.2l.2.3v.4h.2v.2c0 .3 0 .5.2.7v.4l.4 1 1 .7.7.4c.3 0 .8-.2 1-.4.3 0 .4-.4.5-.7V71m-26.4-.2l-.3-1-.3-1v-1.3c0-.4-.3-.8-.3-1v-.7c0-.3-.2-.6-.4-.7l-.4-.2h-.2-.2-.2-.3l-.6.5c0 .2-.2.2-.2.2v.2c-.2 0-.3.2-.3.2h-.2l-.2.2v.2l-.2.2-.2.3h-.2l-.3.4v.2l-.2.2v.2h-.2v.2l-.3.3c-.2.2-.3.4-.5.3-.3 0-.4-1-.5-1.2 0-.2 0-.5-.2-.7 0-.3 0-.5-.2-.8l-.2-.5c0-.3-.2-.5-.3-.7 0-.2-.2-.4-.4-.5h-.2-.2v-.2h-.4-.2-.2v.2h-.2c0 .2 0 .2-.2.2v.2h-.3l-1 1.8c0 .2 0 .6-.4.7-.2-.4 0-.6 0-1-.2-.5-.2-1.2-.6-1.4H99.3h-.2v.2H99v.2c0 .3-.2.4-.2.5l.2.8V72c.2.4.3.7.6.8l.2.8s0-.7.2-.7h.2c0 .2.2.2.3.2h.3c.2 0 .5-.3.5-.4.2-.2.2-.5.3-.8v-.3h.2v-.4-.2h.2v-.3s0-.2.2-.2v-.2-.3c.2 0 .2-.3.2-.3v-.2l.3-.4.3-.4c.2-.4.2-.8.5-1v-.3h.4l.3 1.5c0 .3 0 .6.2 1l.3.7c0 .4 0 1 .3 1.2h.2v.2H106v.2h1s.2 0 .2-.2l.2-.3v-.4l.7-1 1-1.6.7-.6h.2v1.6c.2 0 .2.4.3.6 0 .7.3 1 .6 1.6v.2s0 .2.2.2v.2h.3c.4.3 1 .4 1.2.3.2 0 .7-.5.7-.8 0-.5 0-1-.2-1 0 0-.4 0-.6-.2M112.6 55v-.4V52v-.6-1.2-.7-1.4-.3s-.2-.2 0-.4l-.2-.5v-.5-1.2l-.2-.2V45v-.6-.3l-.2-.3v-1-.5-.4l-.2-.8v-.2-.2l-.2-1s0-.5-.3-1v-.3-.2h-.2v-.2-.3-.3h-.2c0-.2-.2-.3-.3-.4 0 0 0-.2-.2-.2l-.2-.2v-.2h-.2V36c-.2 0-.4 0-.4-.2-.2 0-.4 0-.5-.2-.2 0-.3 0-.5-.2h-.4c0-.2-.3-.2-.5-.3h-.3l-.8-.4h-.2c-.2-.2-.8-.3-1-.3l-.5-.2h-.2c-.2 0-.4 0-.6-.2l-1-.3c-.4-.2-.6 0-.6 0h-.3l-1.5-.3H99l-.3-.2H98l-.8-.5h-1l-.8-.3H95h-.4l-.3-.2c-.3-.2-.8-.3-1.2-.3-.4-.2-.5-.3-.8-.2h-1.7c-.2-.2-.3-.2-.5-.2h-.5-.2l-1.7-.3h-.3v.2c-.2 0-.4.2-.5.3l-.2.4v.2l-.3.8v.2c-.3.7-.4 1.7-.5 2.4v.7l-.2.7v2l-.2.6c0 .2 0 1.3-.2 1.4v1.7c0 .2 0 .7-.2 1l-.3 2.2-.2 1v.8l-.2.8s0 1.7-.2 2V52l-.2 1.4V54.7s0 1-.2 1.2v.8s0 1 1.6 1h1.5s.3 0 .4-.2c8-5 7.6-13.7 7.5-14.5 0-1-.6-2.3-.8-2.8-.3-.4-.3-.7 0-1 0 0 .3 0 1 .8 2 2.2 2.3 6 2 8.5 0 0 0 1.5-1.2 4.6-.5 1.7-1.3 3-2 4.2h8c4-5.6 2-11.3 2-11.5V45l.2.2c.2.2 2.8 2 2.2 7.4-.3 2-.5 2.8-1 4.6h3.2l.3-.2h1.2c1.7 0 2.3-.3 2.6-.4.2 0 .3-.6.3-.7v-1"/></symbol>
	<symbol id="def-sprite-logo-sf-general" viewBox="0 0 200 100"><path fill="#FAFAFA" d="M145.8 50.6V49h1c.3 0 .5.4.5.8s-.2.8-.6.8h-1zm2 1.5c0-1-.2-1-.7-1.2.6 0 1-.5 1-1 0-.7-.4-1.3-1.2-1.3h-1.6v4.8h.6V51h.7c.2 0 .6 0 .7.7 0 .7 0 1.3.2 1.6h.6l-.2-1.2zm-5.5-1h1.7v-.4h-1.7V49h2v-.5h-2.6v4.8h2.5v-.5h-2V51zm-2.3 1.6l-1.8-4h-1v4.7h.7V49l1.7 4.3h1v-4.8h-.7v4zm-3.7.2h-1.8V51h1.7v-.4h-1.7V49h1.8v-.5H134v4.8h2.3v-.5zm-3.6-2h-1.5v.5h1v1.4l-1 .2c-.5 0-.8-.4-.8-1.4V50c0-1 .7-1 1-1 .5 0 .7.2.7.8h.7c0-1-.4-1.4-1.4-1.4-1 0-1.5.6-1.5 1.6v1.6c0 1.3.5 1.8 1.5 1.8.6 0 1 0 1.4-.3v-2.3zm-6.3.8c0 1-.3 1.3-.8 1.3-.6 0-1-.4-1-1.4V50c0-1 .8-1 1-1 .2 0 .8 0 .8 1v1.6zm.6-1.6c0-1-.4-1.6-1.4-1.6-1 0-1.5.6-1.5 1.6v1.6c0 1.3.6 1.8 1.6 1.8s1.4-.5 1.4-1.8V50zm-5.3 3c-.4 0-.8-.2-.8-1.4v-1.3-1s.2-.4.7-.4h.6v.8h.7c0-1-.3-1.4-1.2-1.4-1 0-1.5.4-1.5 1.8v1.3c0 2 1 2 1.4 2 .4 0 1.4 0 1.4-1.6h-.5c0 .8-.6 1-.8 1zm-4 .4c1 0 1.6-.3 1.6-1.3 0-1.4-2.2-1.3-2.2-2.4 0-.5.5-.7 1-.7.4 0 .6.3.6.8h.6c0-1-.4-1.4-1.3-1.4-1 0-1.5.5-1.5 1.3 0 1.5 2 1.3 2 2.4 0 .7-.2 1-.7 1-.4 0-.8-.3-.8-1h-.6c0 .3 0 1.4 1.4 1.4zm-3 0h.6v-5h-.6v5zm-2.4-.5c-.4 0-.8-.2-.8-1.4v-1.3-1c.2 0 .3-.4.8-.4h.6v.8h.6c0-1-.3-1.4-1.2-1.4-1 0-1.5.4-1.5 1.8v1.3c0 2 .8 2 1.4 2 .3 0 1.3 0 1.3-1.6h-.6c0 .8-.5 1-.7 1zm-3-.4l-2-4h-.8v4.7h.6V49l2 4.3h.8v-4.8h-.6v4zm-6.4-1l.7-2.5.7 2.6H103zm.3-3l-1.5 4.7h.6l.4-1h1.8l.3 1h.6l-1.5-4.8h-.7zm-4.5 2V49h1c.4 0 .6.4.6.8s-.3.8-.7.8h-1zm1.3.2c.7 0 1-.5 1-1 0-.7-.3-1.3-1.2-1.3h-1.6v4.8h.6V51h.7c.2 0 .7 0 .7.7s0 1.3.2 1.6h.6V52c-.2-1-.4-1-1-1.2zm-5 2.5h.6V51h1.6v-.4h-1.6V49h1.7v-.5H95v4.8zm-6-4.8v4.8h.5V49l2 4.3h.7v-4.8h-.5v4l-2-4H89zm-3 .6l1 2.6h-1.6L86 49zm-.8 3.2H87l.4 1h.7l-1.5-4.7h-.8l-1.5 4.8h.7l.2-1zm-3.8-2.6c0-.5.4-.7.8-.7.5 0 .7.3.7.8h.5c0-1-.4-1.4-1.3-1.4-.8 0-1.4.5-1.4 1.3 0 1.5 2 1.3 2 2.4 0 .7-.2 1-.7 1-.3 0-.7-.3-.7-1h-.6c0 .3 0 1.4 1.4 1.4 1 0 1.6-.3 1.6-1.3 0-1.4-2.2-1.3-2.2-2.4zm35-3.2c.7 0 1-.2 1.5-.4v-2.3h-1.6v.5h1v1.4l-1 .2c-.5 0-.8-.2-.8-1.3V43c0-1 .7-1 1-1 .5 0 .7.2.7.7h.6c0-1-.5-1.4-1.5-1.4S115 42 115 43v1.5c0 1.3.5 2 1.5 2zM112 42h1c.4 0 .6.4.6.7 0 .4-.2.8-.7.8h-1V42zm0 2h.7c.2 0 .7 0 .8.7v1.6h.8V45c0-1-.3-1.2-1-1.2.7-.2 1-.6 1-1.2s-.3-1.2-1-1.2H111v5h.6V44zm-1.5 1.7h-2V44h1.8v-.5h-1.6V42h1.8v-.6h-2.4v5h2.5v-.7zm-5 0h-1V44h.7c.6 0 1 0 1 1 0 .3 0 .7-.8.7zm-1-3.7h1c.4 0 .7.3.7.7 0 .5-.3.8-.7.8h-1V42zm1.5 1.8c.6-.2.8-.6.8-1.2 0 0 0-.4-.2-.7-.2-.3-.4-.6-1-.6h-1.6v5h1.5c.5 0 1.4-.3 1.4-1.5 0-.8-.3-1.2-1-1.2zm-5.3-.3V42h1c.4 0 .6.4.6.7 0 .4 0 .8-.6.8h-1zm1.5 1.2v1.6h.8l-.2-1.3c0-1-.2-1.2-.8-1.2.6-.2 1-.6 1-1.2s-.4-1.2-1.2-1.2H100v5h.5V44h.8c.2 0 .6 0 .7.7zm-3 1h-2V44H99v-.5H97V42h2v-.6h-2.5v5H99v-.7zm-5.8-2l1.7 2.6h.6l-1.8-2.7 1.7-2.2H95L93 43.6v-2.2h-.6v5h.6v-2.7zm-3 2.7c.4 0 1.4 0 1.4-1.6H91c0 1-.6 1-.8 1-.5 0-.8 0-.8-1.3v-1.3-1s.3-.3.8-.3h.5c.2.2.2.5.2.8h.5c0-1-.3-1.5-1.2-1.5-1 0-1.6.4-1.6 1.8v1.5c0 1.8 1 2 1.5 2zm-4 0c1 0 1.5-.6 1.5-2v-3H87v3c0 1.2-.2 1.4-.8 1.4-.6 0-1-.2-1-1.3v-3h-.5v3c0 1.3.5 2 1.5 2zM83.8 42v-.6h-3v.6h2.4L81 45.6v.7h2.8v-.6h-2.4l2.4-3.6zm52.5 15v-.3h-.4v2.5h.3v-1.5-.4c.2-.2.3-.3.5-.3h.3v-.4c-.3 0-.5 0-.7.5zm-3.4 2h-.3c-.4 0-.4-.3-.4-.4V57h.6v-.3h-.7V56l-.4.2v.5h-.5v.3h.4v1.8c0 .3 0 .5.5.5h.4v-.4zm-8 0c-.3 0-.6-.2-.6-1v-1-.8l.4-.3H125.4v.3c.2 0 .2.2.2.3h.4c0-.7-.2-1-1-1h-.2c-.5 0-1 .3-1 1.2v1c0 1 .4 1.3.7 1.4H125.2c.3 0 1 0 1-1h-.6c0 .7-.4.7-.6.7zm-9.2-2.3h-.5v1.7c0 .4-.2.6-.4.6-.4 0-.6-.2-.6-.6v-1.7h-.4v2c0 .4.3.6.7.6.3 0 .5 0 .6-.4v.2h.5v-2.5zm-3.5 2.2h-.2v-.5c0-.6.5-.5.8-.5 0 .8-.2 1-.5 1zm1-1.6c0-.4-.2-.8-1-.8-.4 0-.7.2-.7.8h.4c0-.3 0-.5.4-.5.5 0 .5.3.4.6-.5 0-1.3 0-1.3.8 0 .5.2 1 .7 1 .3 0 .5-.2.6-.5v.2h.5V57.4zm-3-.3v-.3h-.4v2.5h.3v-1.5c0-.2 0-.5.3-.6h.5v-.4c-.3 0-.6 0-.7.5zm-3-1h1v3.2h.5V56h1v-.4h-2.4v.4zm-2.6 3s-.2 0-.3-.2c-.2 0-.2-.5-.2-.8v-.8c.2-.2.3-.2.5-.2.5 0 .5.5.5.8 0 .6 0 1-.5 1zm.5-2c-.2-.3-.3-.4-.6-.4-.8 0-.8.8-.8 1.4 0 .8.2 1 .5 1.2h.3c.3 0 .4 0 .6-.3v.2h.4v-3.6h-.4V57zm-5.6 2c-.3-.2-.3-.3-.3-.5 0-.6.5-.5 1-.5 0 .8-.4 1-.7 1zm1-1.6c0-.4-.2-.8-.8-.8-.6 0-1 .2-1 .8h.6c0-.3 0-.5.3-.5.5 0 .5.3.5.6-.6 0-1.4 0-1.4.8 0 .5.2 1 .7 1 .3 0 .5-.2.7-.5v.2h.4V57.4zm-4.2 1.8h.5v-3.6h-.6v3.6zm-1.6-.3h-.2c-.2-.2-.2-.3-.2-.5 0-.6.5-.5 1-.5 0 .8-.4 1-.6 1zm1-1.6c0-.4-.3-.8-1-.8-.5 0-.8.2-.8.8h.5c0-.3 0-.5.4-.5.3 0 .3.3.3.6-.6 0-1.3 0-1.3.8 0 .5 0 1 .6 1 .4 0 .6-.2.7-.5v.2h.4V57.4zM93 59v-2h.5v-.3H93V56l-.5.2v.5H92v.3h.5v1.8c0 .3.2.5.6.5h.5v-.4h-.2-.2zm-1.8-3h.4v-.4h-.4v.4zm-6.4 3c-.4 0-.5-.4-.5-1.2 0-.7.2-.8.5-.8s.6 0 .6.8 0 1-.6 1zm0-2.4c-.7 0-1 .4-1 1v.4c0 .8.3 1 .7 1.2h.7c.4 0 .6-.4.6-1.2v-.4c0-.6-.3-1-1-1zm-2 .6h-1.4v-1.6H81v3.6h.4v-1.6h1.3v1.6h.4v-3.6h-.3v1.6zm51 .6c0-.7.2-1 .4-1 .3 0 .4.2.5.5v.5h-1zm.5-1.2c-.5 0-.7.2-.8.4-.2.3-.2.6-.2 1 0 1 .4 1.3 1 1.3.2 0 .5 0 .6-.2 0 0 0-.3.2-.5h-.5v.2l-.4.2c-.3 0-.4 0-.5-.5V58h1.4c0-1-.2-1.4-1-1.4zm-4 0c-.3 0-.4 0-.6.4v-.3h-.5v2.5h.5v-1.5c0-.3 0-.7.5-.7.3 0 .4.2.4.5v1.7h.4v-1.7c0-.6 0-1-.6-1zm-3 1.2v-.5c0-.3.2-.4.4-.4.3 0 .5 0 .5.8h-1zm.4-1.2c-.7 0-1 .4-1 1v1c.3.6.6.7 1 .7.3 0 .5 0 .7-.3l.2-.5h-.5c0 .2 0 .4-.3.4-.2 0-.3 0-.4-.2v-.3-.4h1.3v-.7c0-.5-.4-.7-1-.7zM121 59h-.3l-.2-.5c0-.6.5-.5 1-.5 0 .8-.4 1-.6 1zm.8-.4v-1.2c0-.3 0-.6-.4-.7h-.4c-.5 0-.8 0-1 .7h.6c0-.3 0-.5.4-.5h.2c.2 0 .2.4.2.6h-.2c-.5 0-1 .2-1 .8v.4c0 .3.2.5.6.5.3 0 .5 0 .6-.4v.2h.5c-.2-.2-.2-.4-.2-.5zm-3-2c-.3 0-.5 0-.7.3 0-.3-.2-.4-.5-.4h-.4v.4-.3h-.5v2.5h.4v-1.7-.4H117.6l.2.5v1.7h.4v-1.7-.4h.4c.3 0 .4.2.4.5v1.7h.4v-2c0-.5-.4-.6-.7-.6zm-16.4 0c-.3 0-.5 0-.6.4v-.3h-.5v2.5h.5v-1.5c0-.3 0-.7.5-.7.2 0 .3 0 .4.3v1.9h.4v-1.7c0-.6 0-1-.6-1zm-11.2 2.6h.4v-2.5h-.4v2.5zm-1-1c0 .3 0 .4-.2.5 0 .2-.2.2-.4.2-.4 0-.4-.6-.4-1 0-.5 0-1 .4-1 .3 0 .4 0 .5.3V58.2zm-.5-1.6c-.2 0-.4 0-.5.4v-.3h-.5v3.5h.5V59c0 .2.3.3.5.3.8 0 .8-.6.8-1.2 0-1.2-.4-1.4-.8-1.4zm-3 .7c0-.2.3-.4.5-.4.3 0 .4 0 .4.3h.5c0-.5-.3-.7-.7-.7h-.5c-.3.2-.4.5-.4.7 0 .8 1.3.8 1.3 1.3 0 .2-.2.3-.5.3s-.4-.3-.4-.4h-.4c0 .4.3.7.8.7s1-.2 1-.8c0-.8-1.4-.8-1.4-1.2zm-19.5-5.8l1-1-1-1c-1-1-2.5-1.8-4-2-1 1.8-1 4.2 0 6 1.5-.2 3-1 4-2zm.4.3c-1.2 1-2.6 2-4 2.2 0 .4.3.7.6 1 1.2 1 2.7 1.8 4.3 1.8 1.6 0 3-.6 4.2-1.7L68.5 51l-1 1zm5-6c-1-1-2.5-1.6-4-1.6-1.7 0-3.2.7-4.4 2-.3 0-.5.4-.7.8 1.5.3 3 1 4 2.2l1 1 4.2-4.3zM69 50.6l4.2 4.3 4.3-4.3-4.3-4.3-4.2 4.3zm-6-3.2h-1c-2 0-4 .7-5.5 2.2l-.8 1 .8 1c1.4 1.5 3.4 2.3 5.5 2.3h1c-.6-1-1-2.2-1-3.3 0-1 .4-2.2 1-3.2zm1 8L63 54c-.4.2-.8.2-1.2.2-2.2 0-4.3-.8-5.8-2.4l-.8-1c-2 3.2-1.5 7.3 1 10C57.8 62 59.8 63 62 63c2 0 4-.8 5.4-2.3l4-4c-.8.3-1.7.5-2.7.5-1.7 0-3.4-.7-4.6-2zm-7.8-6c1.5-1.7 3.6-2.5 5.8-2.5H63c.2-.3.5-.7 1-1 1-1.3 2.8-2 4.5-2 1 0 2 .2 2.7.6l-4-4c-1.4-1.6-3.4-2.4-5.4-2.4-2 0-4 .8-5.5 2.3-2.6 2.6-3 6.7-1 9.8 0-.2.4-.5.7-.8z"/></symbol>
	<symbol id="def-sprite-logo-striiv" viewBox="0 0 200 100"><g fill="#FAFAFA"><path d="M121.4 56.4l-1-9.4c-.2-.4-.4-.5-.7-.5H115c-.3 0-.5 0-.5.5l2.5 12.7c0 1 .4 1.7 1 2.2 1.4-.3 2-1 2.5-2.5l1-3zM113.6 47l-1.3 15c0 .4-.4.7-.7.7h-4.3c-.3 0-.5-.3-.5-.6l1.3-15c.2-.4.5-.5.8-.5h4.2c.4 0 .6.2.6.5M99.5 50l.3-3.3c0-.3-.2-.6-.5-.6-.8 0-2 0-2.6.6-.6.4-1 .8-1 1h-.3V47c0-.4-.2-.5-.5-.5h-4.2c-.3 0-.6 0-.6.5l-1.4 15.2c0 .3.3.5.6.5h4.3c.3 0 .6-.3.6-.6l1-10.5c0-1 2.6-.7 3.3-.7h.4c.3 0 .5-.4.5-.7M78.7 58v-1.7c-.2-.5-.5-1-1-1.5-.3-.5-.8-1-1.6-1.3l-3-1.8c-.4-.2-1-.8-.3-1 .2-.2.5-.3.8-.3h1c.3 0 .7 0 1 .2h1.2l1 .2h.7c.4 0 .6 0 .6-.5l.3-3c0-.3-.2-.5-.5-.6l-2.3-.5-3-.2c-1.3 0-2.5.2-3.4.6-1 .3-1.6.8-2 1.5-.6.7-1 1.6-1 2.6s0 2 .4 2.6c.4.8 1 1.4 2 2 .6.3 3.4 1.7 3.8 2.2.2.2.2.7 0 1-.6.8-5.3 0-6-.2-.5 0-1 0-1 .6l-.2 2.8c0 .4.2.6.5.7l1.5.3 1.7.3h2c1 0 2 0 3-.4.8-.3 1.5-.6 2-1 .6-.6 1-1 1.3-1.7.5-.7.6-1.4.7-2M106.4 47L105 62c0 .4-.3.7-.6.7h-4.2c-.3 0-.6-.3-.6-.6l1.3-15c0-.4.3-.5.7-.5h4.2c.2 0 .5.2.4.5M114 41.6V44c0 .3-.5.4-.7.4H109c-.3 0-.6-.2-.6-.5l.3-2.5c0-.3.3-.4.6-.4h4.2c.4 0 .6.2.6.6M107 41.6l-.3 2.4c0 .3-.4.4-.7.4h-4.2c-.3 0-.6-.2-.6-.5l.2-2.5c0-.3.4-.4.7-.4h4.4c.3 0 .6.2.5.6M88.5 49.4l.3-2.6c0-.3-.2-.3-.6-.3h-2V44c0-.2-.2-.8-.5-.8h-4.2c-.3 0-.6.5-.6.8l-1.3 13.7c-.4 3.6 1 5.2 4.5 5.2 1 0 1.7-.2 2.6-.3.3 0 .6-.3.6-.6l.3-2.3c0-.3-.3-.3-.6-.3H86c-.8 0-.8-1-.7-1.6l.8-8h2c.4 0 .7 0 .7-.4"/><path d="M132 36l3.8 4.2c.3.3 0 1-.3 1H134c-.6 0-.8 0-1 .4l-6.7 18c-1 2.7-2.5 3.3-5 3.3-1 0-1.6-.2-2.3-.4 0 0 .3 0 .4-.2.5-.2 1-.5 1.2-1l1-1.8 5-18c0-.5-.2-.6-.6-.6h-1.6c-.5 0-.6-.6-.2-1l7-3.8c.2-.2.5-.3.7 0"/></g></symbol>
	<symbol id="def-sprite-logo-tesla" viewBox="0 0 200 100"><path fill="#FAFAFA" d="M136.5 59.7V67h2.3v-5h8.5v5h2.4v-7.3h-13.2zm-37.3-2.3h8.4c1.2-.4 2.2-1.3 2.4-2.4H97v7h10.7v2.6h-8.4c-1.2.4-2 1.2-2.4 2.3h13v-7.3H99.3v-2.3zm28.4 9.5c1-.6 1.8-1.5 2-2.5h-10.4V55h-2.4v11.8h10.8zm11-9.6h9c1.2-.5 2-1.3 2.4-2.4h-14c.3 1 1.3 2 2.5 2.4zm-60 0h9C89 57 89.8 56 90 55H76c.4 1 1.3 2 2.6 2.4zm0 9.5h9c1.3-.5 2.2-1.4 2.5-2.5H76c.4 1 1.3 2 2.6 2.4zM55 55c.3 1 1.2 2 2.5 2.4h4V67h2.3v-9.5H68c1-.6 2-1.4 2.3-2.5H55zm23.6 7h9c1.3-.4 2.2-1.3 2.5-2.3H76c.4 1 1.3 2 2.6 2.4z"/></symbol>
	<symbol id="def-sprite-logo-ucsf" viewBox="0 0 200 100"><path fill="#FEFEFE" d="M141 48.2v-5h-18.8v18.2c0-2-1-3.7-2.3-5-1.2-.7-2.7-1.4-4.7-1.8l-4.7-1-3.5-1.2-1-1-.2-1.2c0-.8.3-1.5.8-2l.5-.4c1-.6 2-.8 3.6-.8 1.3 0 2.4.2 3.3.6 1.2.7 2 1.8 2 3.4h5.4c0-2.8-1.2-5-3.2-6.4-2-1.5-4.4-2.3-7.2-2.3-3.4 0-6 .8-7.7 2.4-1 1-1.8 2-2.3 3.4 0 .3 0 .6-.2 1-.6 3-2.6 5-6 5-5.2 0-7.2-4.4-7.2-9s2-9 7.3-9c2.8 0 5.4 2 5.7 4.6h5.7c-.7-6.2-5.6-9.6-11.5-9.6-8 0-12.8 5.6-13.2 13V31.6h-6v16.7c0 4-1.2 5.8-5.4 5.8-4.8 0-5.5-2.8-5.5-5.7V31.6h-6v16.7C59 55.5 63.2 59 70.4 59c7 0 11.4-3.5 11.4-10.7v-2c.4 7 5.2 12.7 13 12.7 3.3 0 6-1 8-3l.5.4c1 .7 3 1.4 6 2l2.7.6c1.7.4 3 .8 3.7 1.3.8.5 1.2 1.2 1.2 2 0 1.5-1 2.6-2.5 3-.8.4-2 .5-3.2.5-2.3 0-4-.5-4.8-1.6-.5-.6-.8-1.5-1-2.7h-5.3c0 2.7 1 5 3 6.5 2 1.6 4.8 2.4 8.3 2.4 3.4 0 6-.8 8-2.4 1.6-1.5 2.6-3.3 2.7-5.5V70h6V59h11v-4.6h-11v-6.2H141z"/></symbol>
	<symbol id="def-sprite-logo-zendesk" viewBox="0 0 200 100"><path fill="#FAFAFA" d="M69.4 57.8c-1 .5-2 .8-3 .8-.8 0-1.5 0-2-.3-1 1-2.2 1.5-2.8 1.8 1 1.4 2.2 2.4 3.8 2.8h1.4c1 0 2.2-.2 3-.6.2-.5.3-1 .3-1.6 0-1 0-2-.6-2.8M68.3 50.2H68h.3M68 50.2c0 1.2-.6 2.3-1.4 3v.8c0 1.4-.6 2.6-1.6 3.6h.8c1.4 0 2.7-.3 3.8-1.2 1.3-1 2-2.4 2.3-4-1-1-2.2-1.8-3.7-2.2H68zM67 49.2c0-1.7-.5-3-1.6-4.2-1.5 0-2.8.5-4 1.5 1 1.2 1.5 2.7 1.5 4.2v.3h.7c1 0 2 .4 2.5 1.3.6-1 1-2 1-3M56 45h-.2c-1 1.2-1.6 2.6-1.6 4.2h.2c1.7 0 3.3.7 4.4 1.7 1 0 1.8.5 2.3 1.4.4-.5.8-1 1.2-1V51c0-1.5-.7-3.2-2-4.4-1.2-1-2.7-1.5-4.2-1.5M57.8 51c-1-.5-2-.8-3-.8h-1.2c-1.7.4-3 1.3-4 2.4.3 1.5 1 3 2.4 3.8 1-1.2 2.2-2 3.5-2.2V54c0-1.7 1-2.7 2.3-3M52.3 57.8c-.4 1-.7 2-.7 2.8 0 .6 0 1.2.2 1.7 1 .4 2 .7 3 .7.5 0 1 0 1.5-.2-.2-.5-.2-1-.2-1.6 0-1.3.5-2.5 1.2-3.6-.7-.7-1.3-1.6-1.5-2.6-1.4.5-2.6 1.4-3.4 2.8M61 66.5c1.3-.6 2.4-1.6 3-3-1.5-.7-2.7-2-3.2-3.3-.5-.2-1.8-1-3-2-.5.8-.7 1.8-.7 2.7 0 .8.3 1.6.6 2.4.7 1.5 2 2.6 3.3 3M80.7 59.2l-5.3 6.2H80c.5 0 1 .4 1 1 0 .4-.5.8-1 .8h-6.7c-.5 0-1-.4-1-1 0 0 0-.4.3-.6l5.3-6.2h-4.7c-.5 0-1-.4-1-1 0-.4.5-.8 1-.8H80c.5 0 1 .4 1 1 0 .2 0 .4-.3.6M87.3 59c-1.5 0-2.5 1-2.7 2.5H90c0-1.3-1.2-2.4-2.7-2.4m4.2 4h-7c0 1.5 1.4 2.7 3 2.7 1 0 2-.5 3-1.3l.5-.2c.3 0 .5.2.7.4l.2.5c0 .3-.2.6-.4.8-1 1-2.6 1.7-4.2 1.7-3 0-5.2-2.3-5.2-5 0-3 2.3-5.2 5-5.2 3 0 5 2.2 5 5 0 .5-.2.8-.7.8M110.6 59.2c-1.8 0-3 1.5-3 3.2 0 1.7 1.2 3 3 3s3-1.2 3-3-1.2-3.2-3-3.2m4 8.2c-.6 0-1-.5-1-1v-.6c-.7 1-2 1.7-3.3 1.7-3 0-5-2.2-5-5 0-3 2-5.2 5-5.2 1.5 0 2.7.7 3.2 1.7v-5.7c0-.6.5-1 1.2-1 .6 0 1 .4 1 1v13c0 .6-.4 1-1 1M123 59c-1.6 0-2.7 1-3 2.5h5.7c-.2-1.3-1.3-2.4-2.8-2.4m4 4h-7c.2 1.5 1.4 2.7 3 2.7 1.2 0 2.2-.5 3-1.3l.5-.2c.3 0 .6.2.7.4.2 0 .2.3.2.5 0 .3 0 .6-.3.8-1 1-2.5 1.7-4 1.7-3 0-5.2-2.3-5.2-5 0-3 2.2-5.2 5-5.2 3 0 5 2.2 5 5 0 .5-.3.8-.7.8M133.4 67.5c-1 0-2.6-.4-3.6-1-.4-.2-.6-.5-.6-.8v-.4c.3-.3.5-.5.8-.5h.5c.8.6 1.8 1 2.8 1 1 0 2.3-.4 2.3-1.3 0-.6-.6-1-3-1.6-1.8-.8-2.8-1.6-2.8-3 0-1.7 1.6-2.7 3.8-2.7 1.5 0 2.5.3 3.4.7.4.2.6.5.6 1v.2c-.2.3-.5.6-1 .6h-.2c-.8-.5-1.7-.7-2.6-.7-1.2 0-2 .4-2 1 0 .8.7 1 2.4 1.5 2 .6 3.5 1.3 3.5 3 0 1.6-1.5 3-4.3 3M147.8 67.4c-.3 0-.5 0-.8-.4l-3.7-4-1 .7v2.6c0 .6-.6 1-1.2 1-.5 0-1-.4-1-1v-13c0-.6.5-1 1-1 .7 0 1.2.4 1.2 1v8l4.7-3.7.5-.2c.3 0 .6 0 .8.4l.2.6c0 .3 0 .6-.4.8l-3 2.4 3.6 4 .2.8c0 .5-.4 1-1 1M99 57.2c-2.6 0-4.8 2-4.8 4.7v4.4c0 .6.5 1 1 1 .8 0 1.3-.4 1.3-1V62c0-1.6.8-2.7 2.4-2.8 1.5 0 2.4 1.2 2.4 2.7v4.4c0 .6.5 1 1 1 .7 0 1.2-.4 1.2-1V62c0-2.8-2-4.8-4.7-4.8M147.7 53h-.4v.2h.2c.2 0 .2 0 .2-.2m-.7.7v-1h.5c.3 0 .5 0 .5.3 0 .2 0 .3-.2.4v.3h.2s0 .2-.2.2v-.2l-.3-.4h-.2v.5c-.2 0-.3-.2-.3-.3m1.3-.4c0-.5-.4-1-.8-1-.5 0-1 .5-1 1 0 .4.5.8 1 .8.4 0 .8-.3.8-.7m-2 0c0-.6.6-1 1.2-1s1 .4 1 1-.4 1-1 1-1-.4-1-1"/></symbol>
	<symbol id="def-sprite-logo-appstem" viewBox="0 0 180 34"><path fill="#FFF" d="M54.2 14L52 19h4.5l-2.3-5zm5.5 12.5l-1.7-4h-7.6l-1.7 4h-4.2l7.8-18h4l7.7 18h-4.3zM76.8 17.2c.4-.5.7-1.3.7-2.3 0-1.2-.3-2-1-2.3-.6-.5-1.6-.7-3-.7h-2.2v6H74c1.4 0 2.3-.2 2.8-.8m3-7c1.2 1 1.8 2.7 1.8 5 0 2-.6 3.7-2 4.8-1.2 1-3.2 1.5-6 1.5h-2.3v5h-4v-18h6.4c2.7 0 4.8.6 6 1.7M95.3 17.2c.4-.5.7-1.3.7-2.3 0-1.2-.3-2-1-2.3-.6-.5-1.6-.7-3-.7H90v6h2.7c1.4 0 2.3-.2 2.8-.8m3-7c1.2 1 1.8 2.7 1.8 5 0 2-.5 3.7-1.8 4.8-1.3 1-3.3 1.5-6 1.5h-2.4v5h-4v-18h6.4c2.7 0 4.8.6 6 1.7M109 12.2c-.5.3-.7.7-.7 1.2s.3 1 .8 1.3c.5.3 1.6.6 3.3 1 1.7.5 3 1 4 2 1 .8 1.4 2 1.4 3.6s-.6 3-1.8 4c-1.3 1-3 1.4-5 1.4-2.7 0-5.3-1-7.6-3.2l2.4-3c2 1.8 3.8 2.7 5.4 2.7.8 0 1.3-.2 1.8-.5.4-.3.6-.8.6-1.3s-.2-1-.7-1.3l-2.7-.8c-2-.5-3.7-1.2-4.7-2s-1.4-2-1.4-3.7c0-1.7.6-3 1.8-4 1.3-1 2.8-1.3 4.6-1.3 1.2 0 2.5.2 3.7.6 1.2.4 2.2 1 3 1.7l-2 3c-1.5-1.2-3-1.8-4.8-1.8-.7 0-1.2 0-1.6.5M130.5 12v14.5h-4V12h-5.2V8.6h14.3V12M153.3 8.6V12h-9V16h8v3.4h-8V23h9.3v3.5h-13.3v-18M175.7 15.2l-5 9.8h-2.3l-5-9.8v11.3h-4v-18h5.6l4.6 10 4.7-10h5.4v18h-4M0 4c0-2.2 1.8-4 4-4h26c2.2 0 4 1.8 4 4v26c0 2.2-1.8 4-4 4H4c-2.2 0-4-1.8-4-4V4zm8.8 2c.2 2.7 2.6 6.6 6.5 8.3 3 1.2 7.6 3 9.7 6 1.7-1.6 1.5-3.6.6-5-1.3-2-4.4-3.7-7.3-4-5-.8-7.2-2-9.5-5.3zM16 22.6c2.2.4 4.5.2 6.8-.8 1.5 2 2 4.4 2 7h1.8c.4-4-1-6.3-2.2-8-2.3-3-5.5-4-9.6-6C11 13.3 8.6 10 8.2 6c-2.8 5.4-1.3 10.6 2 13.8 1.4 1.4 3.5 2.4 6 2.8z"/></symbol>
	<symbol id="def-sprite-logo-appstem-dark" viewBox="0 0 180 34"><path fill="#1E1E1E" d="M54.2 14L52 19h4.5l-2.3-5zm5.5 12.5l-1.7-4h-7.6l-1.7 4h-4.2l7.8-18h4l7.7 18h-4.3zM76.8 17.2c.4-.5.7-1.3.7-2.3 0-1.2-.3-2-1-2.3-.6-.5-1.6-.7-3-.7h-2.2v6H74c1.4 0 2.3-.2 2.8-.8m3-7c1.2 1 1.8 2.7 1.8 5 0 2-.6 3.7-2 4.8-1.2 1-3.2 1.5-6 1.5h-2.3v5h-4v-18h6.4c2.7 0 4.8.6 6 1.7M95.3 17.2c.4-.5.7-1.3.7-2.3 0-1.2-.3-2-1-2.3-.6-.5-1.6-.7-3-.7H90v6h2.7c1.4 0 2.3-.2 2.8-.8m3-7c1.2 1 1.8 2.7 1.8 5 0 2-.5 3.7-1.8 4.8-1.3 1-3.3 1.5-6 1.5h-2.4v5h-4v-18h6.4c2.7 0 4.8.6 6 1.7M109 12.2c-.5.3-.7.7-.7 1.2s.3 1 .8 1.3c.5.3 1.6.6 3.3 1 1.7.5 3 1 4 2 1 .8 1.4 2 1.4 3.6s-.6 3-1.8 4c-1.3 1-3 1.4-5 1.4-2.7 0-5.3-1-7.6-3.2l2.4-3c2 1.8 3.8 2.7 5.4 2.7.8 0 1.3-.2 1.8-.5.4-.3.6-.8.6-1.3s-.2-1-.7-1.3l-2.7-.8c-2-.5-3.7-1.2-4.7-2s-1.4-2-1.4-3.7c0-1.7.6-3 1.8-4 1.3-1 2.8-1.3 4.6-1.3 1.2 0 2.5.2 3.7.6 1.2.4 2.2 1 3 1.7l-2 3c-1.5-1.2-3-1.8-4.8-1.8-.7 0-1.2 0-1.6.5M130.5 12v14.5h-4V12h-5.2V8.6h14.3V12M153.3 8.6V12h-9V16h8v3.4h-8V23h9.3v3.5h-13.3v-18M175.7 15.2l-5 9.8h-2.3l-5-9.8v11.3h-4v-18h5.6l4.6 10 4.7-10h5.4v18h-4M0 4c0-2.2 1.8-4 4-4h26c2.2 0 4 1.8 4 4v26c0 2.2-1.8 4-4 4H4c-2.2 0-4-1.8-4-4V4zm8.8 2c.2 2.7 2.6 6.6 6.5 8.3 3 1.2 7.6 3 9.7 6 1.7-1.6 1.5-3.6.6-5-1.3-2-4.4-3.7-7.3-4-5-.8-7.2-2-9.5-5.3zM16 22.6c2.2.4 4.5.2 6.8-.8 1.5 2 2 4.4 2 7h1.8c.4-4-1-6.3-2.2-8-2.3-3-5.5-4-9.6-6C11 13.3 8.6 10 8.2 6c-2.8 5.4-1.3 10.6 2 13.8 1.4 1.4 3.5 2.4 6 2.8z"/></symbol>
	<symbol id="def-sprite-logo-dufl-lg" viewBox="0 0 150 150"><g fill="#FFF" fill-rule="evenodd"><path d="M138.4 56h-33v39H126V72.6l-7 6-2.6-2 11-9.8 11 9.7-2.4 2.2-6.5-5.7v22h9c5.8 0 10.6-4.2 10.6-9.4V65.4c0-5.2-4.7-9.4-10.6-9.4M18.8 67.7h-5v15.7h5c1.7 0 3.2-.3 4.3-1.4 1.6-1.3 1.6-3.7 1.6-6.4s0-5-1.5-6.5c-1-1-2.5-1.3-4.2-1.3"/><path d="M91.4 85.3H77.7V66H80v17.4h11.4v2zm-20-17.6H60.2V75H70v1.7H60v8.6h-2.3V66h13.8v1.7zM49.8 79c0 3.8-3.3 6.5-7.8 6.5-4.6 0-8-2.7-8-6.6V66h2.5v12.7c0 3 2 5 5.4 5 3 0 5.3-2 5.3-5V66h2.4v13zM25 83.2c-1.5 1.4-3.3 2-5.8 2h-7.6V66h7.6c2.5 0 4.3.5 5.8 2 2 1.8 2 4.6 2 7.6s0 5.8-2 7.7zM3.6 56c-2 0-3.6 1.4-3.6 3v33c0 1.6 1.6 3 3.6 3h100V56H3.6z"/></g></symbol>
	<symbol id="def-sprite-logo-enterprise-lg" viewBox="0 0 150 150"><g fill="#FFF" fill-rule="evenodd"><path d="M119.5 66.6c.3-.5 0-1.2-.5-2.3-5-7-14.5-11-26.2-11-11.3 0-22.7 5.2-27.6 12.5 0 0-.7 1-1 2h52c1.4-.2 3-.3 3.3-1.2"/><path d="M131.4 74.4c1-.7 1.3-1.6 1.2-3.3-.2-6.8-12.4-25.6-40-25.6-26.3 0-36 15.4-38.4 20l-1 2.3h3l1-2c2.2-3.8 12-17.5 35.5-17.5 27.4 0 37 18.5 37 22.5 0 .6-.2 1-.4 1-.7 1-1.8 1.2-8.6 1.2H0v2.6h120.7c8.8 0 9.8-.6 10.7-1.2"/><path d="M135.6 91.3c-6.7 8.8-17 17.8-43 17.8-25 .2-41-12.2-46.3-25h8.5c4.6 9.3 17.7 19 36.7 19.3 2.5 0 24.7.4 35.4-13v-.2h9.4l-.8 1.3zM66.4 84C71.7 90.6 82 95 92.4 95c6.8 0 15.7-1 20.3-4.7h10.7c-11 11.5-31 10.7-31.8 10.6-18.2-.5-29.3-9-33.7-16.5h8.4zM0-.3v68h45.2L46 66c5.5-13 23-25.6 46.8-25.6 27 0 44.2 14.8 47 29.5 1 4.4.8 7.2-.5 8.8-2 2.4-6.5 2.5-12.7 2.6H0v68.6h150V-.4H0z"/></g></symbol>
	<symbol id="def-sprite-logo-fitfetti-lg" viewBox="0 0 150 150"><g fill="#FFF" fill-rule="evenodd"><path d="M19.2 90.6c1 0 1.7.7 1.7 1.7S20 94 19 94H3.7c-.2 0-.3 0-.3.3v13.5s0 .2.3.2H17c1 0 1.8.8 1.8 1.7 0 1-.7 1.8-1.7 1.8H3.8c-.2 0-.3 0-.3.2v11.5c0 1-.7 1.8-1.7 1.8s-1.7-.8-1.7-1.8v-31c0-1 .7-1.6 1.7-1.6h17.5zM29.3 123.2c0 1-.7 1.8-1.7 1.8s-1.7-.8-1.7-1.8v-21.8c0-1 .6-1.7 1.6-1.7s1.7.7 1.7 1.7v21.8zM42.5 103c-.2 0-.3.2-.3.4v15c0 1.6.3 3 2 3 1.3-.2 2 .4 2 1.6 0 1.3-1.2 2-2.8 2-2.4 0-4.6-1-4.6-5v-16.6c0-.2 0-.3-.3-.3h-3c-1 0-1.7-.6-1.7-1.6s.7-1.7 1.7-1.7h3c.2 0 .3 0 .3-.3v-4.6c0-1 .8-1.8 1.7-1.8 1 0 1.7.7 1.7 1.8v4.6c0 .2 0 .3.3.3h3c1 0 1.6.7 1.6 1.7s-.6 1.7-1.6 1.7h-3zM58.7 96.5c-.4 0-.5 0-.5.5v9.3c0 .3.2.5.5.5H69c1.8 0 3 1.3 3 3s-1.2 3-3 3H58.7c-.3 0-.5 0-.5.4v8.8c0 1.7-1.2 3-3 3-1.7 0-3-1.3-3-3V93.6c0-1.7 1.4-3 3-3h16c1.8 0 3 1.3 3 3 0 1.6-1.2 3-3 3H58.8zM89 104.8c3.2 0 6.2 2 6.5 4.4 0 .2-.2.3-.4.3H83c-.2 0-.3 0-.3-.3.2-2.4 3.2-4.4 6.4-4.4m-6.2 9.6h16c1.7 0 3-1.3 3-3C101 102 93.4 99 89 99c-6.5 0-12.8 5-12.8 13.5 0 7.3 5.8 12.8 14 12.8 3.2 0 6.7-1.3 8.5-2.7 1.4-1.2 1.7-2.6 1-3.8-1-1.2-2.4-1.4-3.8-.6-1.3.5-2.5 2-6.2 2-3.6 0-6.6-3.2-7.3-5.6 0-.3 0-.4.3-.4M115.4 117.4c0 2 1.5 1.6 2.5 2 1.4.3 2.4 1.6 2 3.3-.3 1.6-1.5 2.3-3.2 2.3-3 0-7.3-.4-7.3-7v-12c0-.2-.2-.4-.5-.4h-1.5c-1.7 0-3-1.3-3-3s1.3-3 3-3h1.5c.3 0 .5 0 .5-.4V96c0-1.7 1.3-3 3-3s3 1.3 3 3v3.2c0 .3 0 .5.4.5h1.6c1.8 0 3 1.3 3 3 0 1.6-1.2 3-3 3H116c-.5 0-.6 0-.6.4v11.4zM134 117.4c0 2 1.4 1.6 2.5 2 1.4.3 2.5 1.6 2 3.3-.3 1.6-1.4 2.3-3.2 2.3-3 0-7.3-.4-7.3-7v-12c0-.2 0-.4-.5-.4H126c-1.7 0-3-1.3-3-3s1.3-3 3-3h1.5c.3 0 .5 0 .5-.4V96c0-1.7 1.3-3 3-3s3 1.3 3 3v3.2c0 .3 0 .5.4.5h1.8c1.7 0 3 1.3 3 3 0 1.6-1.3 3-3 3h-1.8c-.3 0-.5 0-.5.4v11.4zM149.7 122c0 1.7-1.2 3-3 3-1.6 0-3-1.3-3-3v-19.3c0-1.7 1.4-3 3-3 1.8 0 3 1.3 3 3V122zM147 95.6c-1.8 0-3-1.4-3-3 0-1.7 1.2-3 3-3 1.6 0 3 1.3 3 3 0 1.6-1.4 3-3 3M27.7 94.4c-1.5 0-2.5-1-2.5-2.4s1-2.5 2.4-2.5 2.5 1 2.5 2.5c0 1.3-1 2.4-2.3 2.4M74.3 44.5H57.7c-1.7 0-3-1.4-3-3 0-1.7 1.3-3 3-3h16.6c1.7 0 3 1.3 3 3 0 1.6-1.3 3-3 3M91 44.5h-.2c-1.7 0-3-1.4-3-3 0-1.7 1.3-3 3-3s3 1.3 3 3c0 1.6-1.3 3-3 3M74.3 59c-1.7 0-3-1.5-3-3 0-1.8 1.3-3.2 3-3.2s3 1.4 3 3c0 1.7-1.3 3-3 3M91 59h-.2c-1.7 0-3-1.5-3-3 0-1.8 1.3-3.2 3-3.2s3 1.4 3 3c0 1.7-1.3 3-3 3M57.8 59c-1.8 0-3-1.5-3-3 0-1.8 1.2-3.2 3-3.2 1.7 0 3 1.4 3 3 0 1.7-1.3 3-3 3M91 30H57.6c-1.7 0-3-1.3-3-3 0-1.6 1.3-3 3-3H91c1.5 0 3 1.4 3 3 0 1.7-1.5 3-3 3"/></g></symbol>
	<symbol id="def-sprite-logo-hubbub-lg" viewBox="0 0 150 150"><g fill="#FFF" fill-rule="evenodd"><path d="M145.2 86.7c-1.7 0-3-1.4-3-3.2 0-2 1.3-3.3 3-3.3 1.8 0 3 1.4 3 3.3 0 1.8-1.2 3.2-3 3.2m0-7.2c-2 0-3.8 1.7-3.8 4 0 2.2 1.7 4 3.8 4 2.2 0 4-1.8 4-4 0-2.3-1.8-4-4-4M78.3 82.8C76 82.8 75 81 75 81h-.2v1.5h-2.6V70c0-.3-.2-.4-.5-.4h-1V67h2.8c1 0 1.5.6 1.5 1.7v3.6s1-1.6 3.5-1.6c3 0 5 2.5 5 6 0 3.7-2 6-5.2 6zm-7-.3H68c-1 0-1.5-.5-1.5-1.3V81v-.6c-.6 1.2-2 2.4-4 2.4-2.5 0-4-1.3-4-4.4V74c0-.4-.2-.6-.5-.6h-1V71h3c1 0 1.4.5 1.4 1.5v5.3c0 1.4.3 2.3 1.8 2.3 2 0 3.2-1.7 3.2-3.7V71h3v8.6c0 .3 0 .5.4.5h1.4v2.5zm-19.7.3c-2.4 0-3.4-1.7-3.4-1.7v1.5h-2.7V70c0-.3-.2-.4-.5-.4h-1V67H47c1 0 1.5.6 1.5 1.7v3.6s1-1.6 3.5-1.6c3 0 5 2.5 5 6 0 3.7-2 6-5.2 6zm-12.7 0c-2.5 0-3.6-1.7-3.6-1.7v1.5h-2.7V70c0-.3-.2-.4-.5-.4h-1V67h3c1 0 1.4.6 1.4 1.7v3.6s1-1.6 3.4-1.6c3.2 0 5.2 2.5 5.2 6 0 3.7-2.3 6-5.3 6zm-7.3-.3h-3.2c-1 0-1.5-.5-1.5-1.3V81v-.6c-.5 1.2-2 2.4-4 2.4-2.4 0-4-1.3-4-4.4V74c0-.4 0-.6-.4-.6h-1V71h2.8c1 0 1.5.5 1.5 1.5v5.3c0 1.4.3 2.3 1.7 2.3 2 0 3.2-1.7 3.2-3.7V71h2.8v8.6c0 .3.2.5.5.5h1.4v2.5zm-13.6 0h-2.7c-1 0-1.5-.5-1.5-1.5v-5.3c0-1.4-.4-2.4-1.8-2.4-1.5 0-2.7 1-3 2.4-.3.5-.3 1-.3 1.5v5.3h-3V70c0-.3 0-.4-.4-.4h-1V67h3c1 0 1.4.6 1.4 1.7V73c.5-1 2-2.3 4-2.3 2.5 0 4 1.3 4 4.4v4.6c0 .3.2.5.5.5h1v2.5zM0 49.3v51.3L149 75 0 49.3z"/><path d="M145.3 83.3h-.6V82h.6c.4 0 .7.2.7.6 0 .5-.3.7-.7.7m.7.5c.4-.2.8-.5.8-1.2s-.5-1.2-1.3-1.2H144v4h.7V84h.6l.8 1.5h1l-.8-1.5c0-.2-.2-.2-.2-.2M51 73.2c-1.3 0-2.7 1-2.7 3.6 0 1.8 1 3.6 2.8 3.6 1.7 0 3-1.3 3-3.6 0-2.2-1.2-3.6-3-3.6M77.8 73.2c-1.4 0-2.8 1-2.8 3.6 0 1.8 1 3.6 2.8 3.6 1.6 0 3-1.3 3-3.6 0-2.2-1.3-3.6-3-3.6M38.4 73.2c-1.5 0-3 1-3 3.6 0 1.8 1 3.6 3 3.6 1.5 0 3-1.3 3-3.6 0-2.2-1.3-3.6-3-3.6"/></g></symbol>
	<symbol id="def-sprite-logo-keyme-lg" viewBox="0 0 150 150"><path fill="#FFF" fill-rule="evenodd" d="M74.7 134.3c-33 0-59.6-26.7-59.6-59.6C15 41.7 42 15 74.8 15c15.3 0 29.2 6 39.7 15.3L38.4 62 44 75.7l13-5.4 2.7 6.5-13 5.2 5.4 13 8.2 19.4 13-5.4L65 89.8l6.5-2.7 8 19.5 13-5.3-8-19.4 6.4-2.7 8 19.5 13-5.4L98.4 61l-13 5.4-2.6-6.5 41.7-17.3c6 9.3 9.6 20.4 9.6 32.3 0 33-26.7 59.6-59.6 59.6M75 0C33.6 0 0 33.6 0 75s33.6 75 75 75 75-33.6 75-75S116.4 0 75 0"/></symbol>
	<symbol id="def-sprite-logo-striiv-lg" viewBox="0 0 150 150"><g fill="#FFF" fill-rule="evenodd"><path d="M118.8 90.4L116.3 70c0-.7-.4-1-1.2-1h-10c-.6 0-1 .3-1 1l5.3 27.6c.3 2 1 3.6 2 4.7 3.3-.5 4.7-2.3 5.5-5.3l2-6.6zM101.8 70l-3 32.7c0 .7-.8 1.2-1.5 1.2h-9c-.7 0-1.3-.7-1.3-1.4L90 70c0-.7.7-1 1.3-1h9c1 0 1.5.5 1.5 1M72 76.6l.5-7.3c0-.7-.3-1.3-1-1.3-1.8 0-4.2 0-5.7 1-1.3 1-1.8 1.8-2.4 2.3-.2.2-.4.2-.4-.3v-1c.2-.8-.4-1-1-1H53c-.7 0-1.3.2-1.3 1l-3 32.7c0 .6.5 1 1.3 1h9c.8 0 1.3-.5 1.3-1.2l2-22.8c.4-2 5.7-1.5 7.3-1.5h.8c.7 0 1-1 1-1.6M27.2 93.6c0-1.2 0-2.3-.2-3.4-.3-1.2-.8-2.2-1.8-3.2-.8-1-2-2-3.5-3L15 80.2c-.8-.5-2-1.6-.6-2.4.4-.3 1-.4 1.8-.4h2c.8 0 1.5.3 2.4.4.8 0 1.6 0 2.4.2l2 .2c.8 0 1.3 0 1.6.3.8 0 1.3-.5 1.3-1.3l.5-6.4c0-.8-.5-1.2-1.2-1.3-1.4-.5-3-.8-5-1-1.6-.4-3.7-.5-6-.5-3 0-5.6.3-7.6 1.2C6.7 70 5 71 4 72.4c-1 1.4-1.7 3.3-2 5.4 0 2.2.2 4 1 5.7.8 1.6 2.2 3 4 4 1.5.8 7.7 4 8.5 5 .3.5.3 1.4-.2 2-1 1.8-11.2 0-13-.2-1 0-1.6.2-1.6 1.3l-.7 6c0 .8.3 1.2 1 1.4 1 .2 2 .6 3.2.7 1 .2 2.4.5 3.7.6l4 .2c2.5 0 4.7-.2 6.5-.8 1.8-.6 3.4-1.3 4.5-2.3 1.3-1 2.2-2.2 2.8-3.5 1-1.5 1.3-3 1.4-4.4M86.7 70l-3 32.7c0 .7-.8 1.2-1.4 1.2h-9c-.7 0-1.3-.7-1.3-1.4L75 70c0-.7.7-1 1.4-1h9c.8 0 1.4.5 1.3 1M103.2 58l-.5 5.2c0 .7-.8.8-1.4.8h-9c-.7 0-1.3-.4-1.3-1l.5-5.2c0-.7.8-.8 1.4-.8h9c.6 0 1.2.3 1.2 1M87.2 58l-.5 5.2c0 .7-.8.8-1.5.8h-9c-.6 0-1.2-.4-1.2-1l.5-5.2c0-.7.8-.8 1.5-.8h9c.7 0 1.3.3 1.2 1M48 75.4l.6-5.7c0-.7-.4-.7-1-.7h-4.8l.4-5c0-.7-.6-2-1.2-2h-9c-.6 0-1.3 1-1.3 1.6L29 93.2c-.6 7.8 2 11 10 11 2 0 3.4 0 5.3-.3.7-.3 1.4-.6 1.4-1.3l.5-5.2c0-.7-.5-.6-1.2-.6h-2.8c-1.7 0-1.6-2-1.5-3.6L42 76H47c.6 0 1 0 1.3-.6"/><path d="M141.6 46.2L150 55c.5.6.3 2-.8 2H146c-1 0-1.7.3-2 1l-14.4 39c-2 5.6-5.4 7-10.7 7-2 0-3.6-.2-5-.7l1-.5c1-.4 1.7-1 2.4-2s1.3-2.3 1.8-4L130 58c.3-1 0-1.2-1-1.2h-3.5c-1 0-1.3-1.4-.3-2l14.6-8.5c.8-.3 1.3-.4 1.8 0"/></g></symbol>
	<symbol id="def-sprite-logo-tesla-lg" viewBox="0 0 150 150"><g fill="#FFF" fill-rule="evenodd"><path d="M82.5 16.4l-8 10.3-8-10.3C54 16 25.5 16.8 8 24c2.5 4.5 13 11 18.6 12.4.3-9 13-10.8 25-10.8l23 122.4L97.2 25.6c12 0 24.7 1.8 25 10.8 5.8-1.4 16.2-8 18.6-12.5-15-6.2-38.4-7.7-52.6-7.7h-6"/><path d="M62.2 2.2C41.2 2.7 20 5 0 11.7l4.4 6.6c17-6 37-8.8 58-9.4 8-.4 16.2-.4 24 0 21.3.5 41.3 3.3 58 9.3l4.6-6.6c-20-6.7-41-9-62.2-9.5L74.5 2c-4 0-8.2 0-12.3.2"/></g></symbol>
</svg>