<svg id="sprite" xmlns="http://www.w3.org/2000/svg" style="display:none;">
    <symbol id="medium" viewBox="0 0 40 40">
        <path  style="fill:inherit;" fill="#fff" d="M38.766 9.827c-.008-.005-.014-.013-.022-.017l-.013-.007-11.123-5.675c-.076-.038-.155-.065-.235-.086-.1-.026-.202-.042-.305-.042-.426 0-.85.218-1.08.6l-6.405 10.618 8.038 13.327L38.8 10.01c.037-.063.02-.14-.034-.183zM16.056 12.8v12.088l10.53 5.372-10.53-17.46zm12.11 18.267l8.67 4.422c1.128.575 2.042.172 2.042-.9V13.308l-10.71 17.76zM14.227 9.844L3.363 4.3c-.197-.1-.383-.146-.552-.146-.476 0-.81.376-.81 1.006v23.935c0 .64.46 1.4 1.02 1.686l9.57 4.883c.246.125.48.185.69.185.596 0 1.012-.47 1.012-1.258V9.953c0-.046-.025-.088-.065-.11z"/></symbol>
    <symbol id="twitter" viewBox="0 0 40 40">
        <path style="fill:inherit;" fill="#fff" d="M12.288 36.07c14.744 0 22.807-12.337 22.807-23.034 0-.35-.007-.7-.023-1.047 1.565-1.144 2.926-2.57 4-4.193-1.437.644-2.983 1.08-4.604 1.274 1.655-1 2.925-2.587 3.525-4.477-1.55.927-3.264 1.602-5.09 1.965C31.44 4.984 29.357 4 27.053 4c-4.43 0-8.02 3.626-8.02 8.095 0 .636.072 1.254.21 1.847-6.663-.34-12.57-3.56-16.524-8.46-.69 1.197-1.086 2.587-1.086 4.07 0 2.81 1.415 5.29 3.567 6.74-1.314-.042-2.55-.407-3.63-1.014v.104c0 3.92 2.762 7.194 6.43 7.937-.674.184-1.382.283-2.114.283-.516 0-1.018-.05-1.506-.145 1.02 3.216 3.98 5.557 7.488 5.623-2.744 2.172-6.2 3.466-9.956 3.466-.647 0-1.285-.037-1.912-.112 3.548 2.296 7.76 3.637 12.288 3.637"/></symbol>
    <symbol id="facebook" viewBox="0 0 40 40">
        <path style="fill:inherit;" fill="#fff" d="M22.842 35.15V20.94h4.925l.737-5.537h-5.662v-3.535c0-1.603.46-2.696 2.834-2.696h3.028V4.217C28.18 4.15 26.384 4 24.292 4c-4.366 0-7.355 2.58-7.355 7.32v4.083H12v5.538h4.937v14.21h5.905z"/></symbol>
    <symbol id="instagram" viewBox="0 0 40 40">
        <path style="fill:inherit;" fill="#FAFAFA" d="M14 5c-1.5.2-2.7.4-3.7.8s-1.8 1-2.7 1.8c-1 1-1.4 1.7-1.8 2.7-.4 1-.6 2.2-.7 3.8V27c.2 1.5.4 2.7.8 3.7s1 1.8 1.8 2.7c1 1 1.7 1.4 2.7 1.8 1 .4 2.2.6 3.8.7H27c1.5-.2 2.7-.4 3.7-.8s1.8-1 2.7-1.8c1-1 1.4-1.7 1.8-2.7.4-1 .6-2.2.7-3.8v-6.5V14c-.2-1.5-.4-2.7-.8-3.7s-1-1.8-1.8-2.7c-1-1-1.7-1.4-2.7-1.8-1-.4-2.2-.6-3.8-.7H14m.2 28c-1.5 0-2.3-.2-2.8-.4-.8-.3-1.3-.6-1.8-1.2-.6-.5-1-1-1.2-1.8-.2-.5-.4-1.3-.5-2.8-.2-1.7-.2-2.2-.2-6.3v-6.3c.2-1.5.4-2.3.6-2.8.3-.8.6-1.3 1.2-1.8.5-.6 1-1 1.8-1.2.5-.2 1.3-.4 2.8-.5 1.7-.2 2.2-.2 6.3-.2h6.3c1.5.2 2.3.4 2.8.6.8.3 1.3.6 1.8 1.2.6.5 1 1 1.2 1.8.2.5.4 1.3.5 2.8.2 1.7.2 2.2.2 6.3v6.3c-.2 1.5-.4 2.3-.6 2.8-.3.8-.6 1.3-1.2 1.8-.5.6-1 1-1.8 1.2-.5.2-1.3.4-2.8.5-1.7.2-2.2.2-6.3.2h-6.3M27 12c0 1 .7 2 1.8 2 1 0 1.8-1 1.8-2s-.8-1.8-1.8-1.8-2 .8-2 1.8m-14.3 8.3c0 4.4 3.6 8 8 8s8-3.6 8-8-3.6-8-8-8-8 3.6-8 8m2.8 0c0-3 2.3-5.2 5.2-5.2 3 0 5.2 2.3 5.2 5.2 0 3-2.3 5.2-5.2 5.2-3 0-5.2-2.3-5.2-5.2"/></symbol>
    <symbol id="email" viewBox="0 0 20 20">
        <path style="fill:inherit;" fill="#fff" d="M1.3 0C.6 0 0 .6 0 1.3v9.4c0 .7.6 1.3 1.3 1.3h16.4c.7 0 1.3-.6 1.3-1.3V1.3c0-.7-.6-1.3-1.3-1.3H1.3zM3 2h.6L9 7c.2.3.8.3 1 0l5.4-5c.3-.2.7-.2 1 0v1L13 6l3 3c.3.3.3.7 0 1 0 .2-.5.2-.8 0l-3.2-3.2L11 8c-1 .7-2 .7-3 0L6.8 6.8l-3.2 3c-.2.4-.6.4-1 0V9L6 6l-3-3c-.3-.3-.3-.7 0-1H3z"/></symbol>
    <symbol id="phone" viewBox="0 0 20 20">
        <path style="fill:inherit;" fill="#fff" d="M9 10.4c-.3 0-.5 0-.6-.2-1.6-1-3-2.3-4-4l-.2-1c0-.5 1-.8 1-1.4.3-.5 0-1-.3-1.5C4.3 1.6 3.7 1 3 .5 2.7.2 2.3 0 1.8 0 0 0-.2 3.2 0 4.5.5 6 1 7 2 8.2c1.7 2.7 4 5 7 6 1 .5 2.2.7 3.3.4.6 0 1-.3 1.5-.8.4-.4.6-1 .5-1.5 0-.6-.5-1-1-1.5-.4-.6-1-1-1.7-1.5L11 9c-.2 0-.4 0-.5.2-.4.3-.8.5-1 .8l-.6.4"/></symbol>
    <symbol id="phone--contact" viewBox="-2 -2 44 44">
        <path className="green-accent" d="M22.0003756,23.0148918 C21.7814189,23.0335505 21.5807085,22.921598 21.3799981,22.8096454 C19.537112,21.7087784 17.9679218,20.1414424 16.8731379,18.2755662 C16.6724276,17.9583672 16.4899636,17.585192 16.5629492,17.2120168 C16.690674,16.5029838 17.566501,16.2231024 17.8219506,15.5513869 C18.0591538,14.9729653 17.748965,14.3199086 17.3840371,13.8161221 C16.7819059,12.9764778 16.0155572,12.248786 15.1397302,11.7076819 C14.720063,11.4464593 14.2639031,11.2225541 13.7712503,11.1852366 C11.5634362,11.073284 11.4357115,14.842354 11.7276538,16.3163962 C12.0378426,17.8464147 12.7859449,19.2644806 13.661772,20.5519352 C15.7236149,23.6119722 18.5518065,26.2055401 21.9821292,27.4370184 C23.1863915,27.8661699 24.4818857,28.1273926 25.7226407,27.8288524 C26.3430182,27.6795823 26.926903,27.3997009 27.3648165,26.914573 C27.8027301,26.448104 28.0399332,25.7763886 27.9304548,25.1419906 C27.8209764,24.488934 27.3830629,23.9664886 26.9451494,23.5000196 C26.3065255,22.8283041 25.5949159,22.2312238 24.8285673,21.7087784 C24.6825961,21.6154846 24.5366249,21.5221908 24.3724073,21.503532 C24.1899433,21.4848733 24.0257258,21.5781671 23.8615082,21.6714609 C23.4053482,21.9326836 22.9856811,22.2498825 22.6207531,22.604399 C22.4565356,22.7723279 22.2740716,22.9402567 22.0551148,22.9775742 C22.0368684,22.996233 22.018622,23.0148918 22.0003756,23.0148918"></path>
        <ellipse id="Oval" stroke="#3CD52E" cx="20" cy="20" rx="20" ry="20"></ellipse></symbol>
</svg>
