<?xml version="1.0" encoding="UTF-8" standalone="no"?>
<!-- Generator: Adobe Illustrator 13.0.2, SVG Export Plug-In . SVG Version: 6.00 Build 14948)  -->
<!DOCTYPE svg  PUBLIC '-//W3C//DTD SVG 1.1//EN'  'http://www.w3.org/Graphics/SVG/1.1/DTD/svg11.dtd'>
<svg id="Layer_1" xmlns="http://www.w3.org/2000/svg" xml:space="preserve" height="626px" viewBox="0 0 626 626" width="626px" version="1.1" y="0px" x="0px" xmlns:xlink="http://www.w3.org/1999/xlink" enable-background="new 0 0 626 626">
	<g clip-rule="evenodd" fill-rule="evenodd">
		<path fill="#fff" d="m294 0c-86.19 7.179-152.29 42.292-202 92-48.087 48.09-85.543 116.03-92 202v-294h294z"/>
		<path d="m294 0h38c88.121 7.316 153.67 43.672 202 92 48.323 48.323 84.693 113.88 92 202v38c-7.359 88.111-43.662 153.66-92 202-48.322 48.322-113.88 84.687-202 92h-38c-88.111-7.318-153.68-43.68-202-92-48.332-48.33-84.663-113.89-92-202v-38c6.457-85.974 43.913-153.91 92-202 49.71-49.708 115.81-84.821 202-92zm-122 120c-30.185 15.87-56.524 51.175-63 84-5.514 27.952-1 71.014-1 104 0 37.382-3.114 70.428 0 105 3.777 41.93 38.032 81.907 71 96 33.524 14.331 82.96 9 132 9 48.481 0 105.29 3.519 135-9 41.976-17.688 73-58.715 73-118v-87c0-30.355 2.744-61.21 0-88-2.493-24.339-12.543-45.646-23-60-15.854-21.763-46.14-44.616-82-48-31.074-2.933-66.221 0-100 0-33.602 0-71.303-1.91-101 1-14.83 1.45-29.99 5.21-41 11z"/>
		<path fill="#fff" d="m332 0h294v294c-7.307-88.124-43.677-153.68-92-202-48.33-48.328-113.88-84.684-202-92z"/>
		<path fill="#fff" d="m213 109c29.697-2.91 67.398-1 101-1 33.779 0 68.926-2.933 100 0 35.86 3.384 66.146 26.237 82 48 10.457 14.354 20.507 35.661 23 60 2.744 26.79 0 57.645 0 88v87c0 59.285-31.024 100.31-73 118-29.709 12.519-86.519 9-135 9-49.04 0-98.476 5.331-132-9-32.968-14.093-67.223-54.07-71-96-3.114-34.572 0-67.618 0-105 0-32.986-4.514-76.048 1-104 6.476-32.825 32.815-68.13 63-84 11.01-5.79 26.17-9.55 41-11zm265 310c7.898-29.015 3-73.862 3-107 0-35.23 4.955-78.382-3-107-6.681-24.032-29.333-48.971-57-57-24.453-7.097-61.646-3-94-3-33.368 0-66.145-1.458-97 0-48.702 2.301-73.529 29.469-84 72 0.12 49.136-3.389 117.53-1 171 1.908 42.714 20.662 74.456 54 87 27.494 10.345 72.141 6 114 6 33.793 0 67.94 0.503 98-1 35.78-9.22 58.81-30.92 67-61z"/>
		<path d="m411 480c-30.06 1.503-64.207 1-98 1-41.859 0-86.506 4.345-114-6-33.338-12.544-52.092-44.286-54-87-2.389-53.474 1.12-121.86 1-171 10.471-42.531 35.298-69.699 84-72 30.855-1.458 63.632 0 97 0 32.354 0 69.547-4.097 94 3 27.667 8.029 50.319 32.968 57 57 7.955 28.618 3 71.77 3 107 0 33.138 4.898 77.985-3 107-8.19 30.08-31.22 51.78-67 61zm0-264c17.348 15.215 41.443-12.579 25-27-3.596-3.153-11.854-4.11-19-2-11.18 3.3-15.39 20.77-6 29zm-143 201c57.887 24.393 124.3-5.585 147-54 28.789-61.406-2.81-129.62-54-153-27.265-12.451-72.482-10.963-98 1-29.425 13.795-59.303 49.669-62 90-0.779 11.656 0.177 21.526 1 33 9.45 38.36 34.8 69.85 66 83z"/>
		<path fill="#fff" d="m417 187c7.146-2.11 15.404-1.153 19 2 16.443 14.421-7.652 42.215-25 27-9.39-8.23-5.18-25.7 6-29z"/>
		<path fill="#fff" d="m202 334c-0.823-11.474-1.779-21.344-1-33 2.697-40.331 32.575-76.205 62-90 25.518-11.963 70.735-13.451 98-1 51.19 23.377 82.789 91.594 54 153-22.698 48.415-89.113 78.393-147 54-31.2-13.15-56.55-44.64-66-83zm41-47c-22.729 65.021 41.955 114.89 96 96 23.498-8.214 44.255-29.79 48-60 4.787-38.62-18.535-66.273-40-77-10.601-5.298-30.524-8.548-46-6-33.84 5.57-51.69 28.95-58 47z"/>
		<path d="m301 240c15.476-2.548 35.399 0.702 46 6 21.465 10.727 44.787 38.38 40 77-3.745 30.21-24.502 51.786-48 60-54.045 18.893-118.73-30.979-96-96 6.31-18.05 24.16-41.43 58-47z"/>
		<path fill="#fff" d="m0 332c7.337 88.11 43.668 153.67 92 202 48.32 48.32 113.89 84.682 202 92h-294v-294z"/>
		<path fill="#fff" d="m626 332v294h-294c88.115-7.313 153.68-43.678 202-92 48.34-48.34 84.64-113.89 92-202z"/>
	</g>
</svg>
