<?xml version="1.0" encoding="utf-8"?>
<!-- Generator: Adobe Illustrator 13.0.2, SVG Export Plug-In . SVG Version: 6.00 Build 14948)  -->
<!DOCTYPE svg PUBLIC "-//W3C//DTD SVG 1.1//EN" "http://www.w3.org/Graphics/SVG/1.1/DTD/svg11.dtd">
<svg version="1.1" id="Layer_1" xmlns="http://www.w3.org/2000/svg" xmlns:xlink="http://www.w3.org/1999/xlink" x="0px" y="0px"
	 width="626px" height="626px" viewBox="0 0 626 626" enable-background="new 0 0 626 626" xml:space="preserve">
<g>
	<g>
		<path fill-rule="evenodd" clip-rule="evenodd" fill="#FFFFFF" d="M294,0C207.806,7.179,141.708,42.292,92,92
			C43.913,140.087,6.457,208.026,0,294C0,196,0,97.999,0,0C98,0,196.001,0,294,0z"/>
		<path fill-rule="evenodd" clip-rule="evenodd" d="M294,0c12.667,0,25.333,0,38,0c88.121,7.316,153.672,43.672,202,92
			c48.323,48.323,84.693,113.876,92,202c0,12.667,0,25.333,0,38c-7.359,88.111-43.662,153.662-92,202
			c-48.322,48.322-113.885,84.687-202,92c-12.667,0-25.333,0-38,0c-88.111-7.318-153.68-43.68-202-92
			C43.668,485.668,7.337,420.11,0,332c0-12.667,0-25.333,0-38c6.457-85.974,43.913-153.913,92-202
			C141.708,42.292,207.806,7.179,294,0z M172,120c-30.185,15.87-56.524,51.175-63,84c-5.514,27.952-1,71.014-1,104
			c0,37.382-3.114,70.428,0,105c3.777,41.93,38.032,81.907,71,96c33.524,14.331,82.96,9,132,9c48.481,0,105.291,3.519,135-9
			c41.976-17.688,73-58.715,73-118c0-28.278,0-58.001,0-87c0-30.355,2.744-61.21,0-88c-2.493-24.339-12.543-45.646-23-60
			c-15.854-21.763-46.14-44.616-82-48c-31.074-2.933-66.221,0-100,0c-33.602,0-71.303-1.91-101,1
			C198.17,110.453,183.009,114.212,172,120z"/>
		<path fill-rule="evenodd" clip-rule="evenodd" fill="#FFFFFF" d="M332,0c97.999,0,196.001,0,294,0c0,98,0,196.001,0,294
			c-7.307-88.124-43.677-153.677-92-202C485.672,43.672,420.121,7.316,332,0z"/>
		<path fill-rule="evenodd" clip-rule="evenodd" fill="#FFFFFF" d="M213,109c29.697-2.91,67.398-1,101-1
			c33.779,0,68.926-2.933,100,0c35.86,3.384,66.146,26.237,82,48c10.457,14.354,20.507,35.661,23,60c2.744,26.79,0,57.645,0,88
			c0,28.999,0,58.722,0,87c0,59.285-31.024,100.312-73,118c-29.709,12.519-86.519,9-135,9c-49.04,0-98.476,5.331-132-9
			c-32.968-14.093-67.223-54.07-71-96c-3.114-34.572,0-67.618,0-105c0-32.986-4.514-76.048,1-104c6.476-32.825,32.815-68.13,63-84
			C183.009,114.212,198.17,110.453,213,109z M478,419c7.898-29.015,3-73.862,3-107c0-35.23,4.955-78.382-3-107
			c-6.681-24.032-29.333-48.971-57-57c-24.453-7.097-61.646-3-94-3c-33.368,0-66.145-1.458-97,0c-48.702,2.301-73.529,29.469-84,72
			c0.12,49.136-3.389,117.526-1,171c1.908,42.714,20.662,74.456,54,87c27.494,10.345,72.141,6,114,6c33.793,0,67.94,0.503,98-1
			C446.778,470.784,469.812,449.075,478,419z"/>
		<path fill-rule="evenodd" clip-rule="evenodd" d="M411,480c-30.06,1.503-64.207,1-98,1c-41.859,0-86.506,4.345-114-6
			c-33.338-12.544-52.092-44.286-54-87c-2.389-53.474,1.12-121.864,1-171c10.471-42.531,35.298-69.699,84-72
			c30.855-1.458,63.632,0,97,0c32.354,0,69.547-4.097,94,3c27.667,8.029,50.319,32.968,57,57c7.955,28.618,3,71.77,3,107
			c0,33.138,4.898,77.985-3,107C469.812,449.075,446.778,470.784,411,480z M411,216c17.348,15.215,41.443-12.579,25-27
			c-3.596-3.153-11.854-4.11-19-2C405.816,190.303,401.612,207.767,411,216z M268,417c57.887,24.393,124.302-5.585,147-54
			c28.789-61.406-2.81-129.623-54-153c-27.265-12.451-72.482-10.963-98,1c-29.425,13.795-59.303,49.669-62,90
			c-0.779,11.656,0.177,21.526,1,33C211.447,372.355,236.8,403.854,268,417z"/>
		<path fill-rule="evenodd" clip-rule="evenodd" fill="#FFFFFF" d="M417,187c7.146-2.11,15.404-1.153,19,2
			c16.443,14.421-7.652,42.215-25,27C401.612,207.767,405.816,190.303,417,187z"/>
		<path fill-rule="evenodd" clip-rule="evenodd" fill="#FFFFFF" d="M202,334c-0.823-11.474-1.779-21.344-1-33
			c2.697-40.331,32.575-76.205,62-90c25.518-11.963,70.735-13.451,98-1c51.19,23.377,82.789,91.594,54,153
			c-22.698,48.415-89.113,78.393-147,54C236.8,403.854,211.447,372.355,202,334z M243,287c-22.729,65.021,41.955,114.893,96,96
			c23.498-8.214,44.255-29.79,48-60c4.787-38.62-18.535-66.273-40-77c-10.601-5.298-30.524-8.548-46-6
			C267.165,245.571,249.311,268.947,243,287z"/>
		<path fill-rule="evenodd" clip-rule="evenodd" d="M301,240c15.476-2.548,35.399,0.702,46,6c21.465,10.727,44.787,38.38,40,77
			c-3.745,30.21-24.502,51.786-48,60c-54.045,18.893-118.729-30.979-96-96C249.311,268.947,267.165,245.571,301,240z"/>
		<path fill-rule="evenodd" clip-rule="evenodd" fill="#FFFFFF" d="M0,332c7.337,88.11,43.668,153.668,92,202
			c48.32,48.32,113.889,84.682,202,92c-98,0-196.001,0-294,0C0,528.001,0,429.999,0,332z"/>
		<path fill-rule="evenodd" clip-rule="evenodd" fill="#FFFFFF" d="M626,332c0,97.999,0,196.001,0,294c-97.999,0-196.001,0-294,0
			c88.115-7.313,153.678-43.678,202-92C582.338,485.662,618.641,420.111,626,332z"/>
	</g>
</g>
</svg>
