<?xml version="1.0" encoding="UTF-8"?>
<svg width="85px" height="85px" viewBox="0 0 85 85" version="1.1" xmlns="http://www.w3.org/2000/svg" xmlns:xlink="http://www.w3.org/1999/xlink">
    <!-- Generator: Sketch 49.3 (51167) - http://www.bohemiancoding.com/sketch -->
    <title>ic_revolution@3x</title>
    <desc>Created with Sketch.</desc>
    <defs></defs>
    <g id="ic_revolution" stroke="none" stroke-width="1" fill="none" fill-rule="evenodd">
        <rect id="Rectangle" x="0" y="0" width="85" height="85"></rect>
        <g id="Page-1" transform="translate(7.000000, 0.000000)" fill="#FFFFFF">
            <path d="M44.5696377,53.8948292 L44.566459,53.8948292 C44.0165384,54.1564173 43.6732353,54.6985036 43.6732353,55.3036232 L43.6732353,62.0355789 L28.1069845,62.0355789 L28.1069845,55.3036232 C28.1069845,54.7079586 27.757324,54.1564173 27.210582,53.8948292 C20.1792268,50.5761263 15.6336399,43.4596676 15.6336399,35.7696059 C15.6336399,24.6946565 24.7216349,15.6840473 35.8916993,15.6840473 C47.0585849,15.6840473 56.1465798,24.6946565 56.1465798,35.7696059 C56.1465798,43.4628193 51.600993,50.5761263 44.5696377,53.8948292 M35.8916993,12.5607477 C22.9828684,12.5607477 12.4835165,22.9706959 12.4835165,35.7696059 C12.4835165,44.2791004 17.3660489,52.2685702 24.9600398,56.2648809 L24.9600398,63.5988045 C24.9600398,64.459209 25.6657183,65.1588785 26.5335121,65.1588785 L45.2467077,65.1588785 C46.1145015,65.1588785 46.82018,64.459209 46.82018,63.5988045 L46.82018,56.2648809 C54.4141709,52.2685702 59.2967033,44.2791004 59.2967033,35.7696059 C59.2967033,22.9706959 48.7973514,12.5607477 35.8916993,12.5607477" id="Fill-1"></path>
            <path d="M45.2407212,68.2990654 L26.5394986,68.2990654 C25.67226,68.2990654 24.967033,68.9961869 24.967033,69.8534579 C24.967033,70.7138692 25.67226,71.4109907 26.5394986,71.4109907 L45.2407212,71.4109907 C46.1079598,71.4109907 46.8131868,70.7138692 46.8131868,69.8534579 C46.8131868,68.9961869 46.1079598,68.2990654 45.2407212,68.2990654" id="Fill-3"></path>
            <path d="M45.2407212,74.5794393 L26.5394986,74.5794393 C25.67226,74.5794393 24.967033,75.2765607 24.967033,76.1338318 C24.967033,76.9911028 25.67226,77.6882243 26.5394986,77.6882243 L45.2407212,77.6882243 C46.1079598,77.6882243 46.8131868,76.9911028 46.8131868,76.1338318 C46.8131868,75.2765607 46.1079598,74.5794393 45.2407212,74.5794393" id="Fill-5"></path>
            <path d="M42.1207562,80.8598131 L29.6594636,80.8598131 C28.7927291,80.8598131 28.0879121,81.5569346 28.0879121,82.4173458 C28.0879121,83.2746168 28.7927291,83.9717383 29.6594636,83.9717383 L42.1207562,83.9717383 C42.9874906,83.9717383 43.6923077,83.2746168 43.6923077,82.4173458 C43.6923077,81.5569346 42.9874906,80.8598131 42.1207562,80.8598131" id="Fill-7"></path>
            <path d="M51.4828604,37.682243 C52.3498889,37.682243 53.0549451,36.9728249 53.0549451,36.0972368 C53.0549451,26.5808088 45.3596702,18.8411215 35.901755,18.8411215 C35.0347265,18.8411215 34.3296703,19.5505396 34.3296703,20.4229321 C34.3296703,21.2953246 35.0347265,22.0047426 35.901755,22.0047426 C43.6256132,22.0047426 49.9075999,28.3287894 49.9075999,36.0972368 C49.9075999,36.9728249 50.6158319,37.682243 51.4828604,37.682243" id="Fill-10"></path>
            <path d="M7.79321457,34.5420561 L1.57259334,34.5420561 C0.707032893,34.5420561 0,35.2391776 0,36.0964486 C0,36.9568598 0.707032893,37.6539813 1.57259334,37.6539813 L7.79321457,37.6539813 C8.65877502,37.6539813 9.36263736,36.9568598 9.36263736,36.0964486 C9.36263736,35.2391776 8.65877502,34.5420561 7.79321457,34.5420561" id="Fill-12"></path>
            <path d="M69.4305772,34.5420561 L63.209956,34.5420561 C62.3443955,34.5420561 61.6373626,35.2391776 61.6373626,36.0964486 C61.6373626,36.9568598 62.3443955,37.6539813 63.209956,37.6539813 L69.4305772,37.6539813 C70.2961377,37.6539813 71,36.9568598 71,36.0964486 C71,35.2391776 70.2961377,34.5420561 69.4305772,34.5420561" id="Fill-15"></path>
            <path d="M35.8745055,9.42056075 C36.7265055,9.42056075 37.4193407,8.71234385 37.4193407,7.84142849 L37.4193407,1.57913226 C37.4193407,0.71140706 36.7265055,0 35.8745055,0 C35.0225055,0 34.3296703,0.71140706 34.3296703,1.57913226 L34.3296703,7.84142849 C34.3296703,8.71234385 35.0225055,9.42056075 35.8745055,9.42056075" id="Fill-18"></path>
            <path d="M15.1695728,17.5771864 C15.4747692,17.8876382 15.8816977,18.0560748 16.3181613,18.0560748 C16.754625,18.0560748 17.1615535,17.8876382 17.4700315,17.5771864 C18.1033961,16.9397694 18.1033961,15.9027282 17.4700315,15.2653113 L12.9150576,10.6844959 C12.6098612,10.3740441 12.2029327,10.2056075 11.7664691,10.2056075 L11.7631874,10.2056075 C11.3300054,10.2056075 10.9230769,10.3740441 10.6178805,10.6844959 C9.98451601,11.3186102 9.98451601,12.358954 10.6178805,12.996371 L15.1695728,17.5771864 Z" id="Fill-21"></path>
            <path d="M56.6070198,54.6461362 C55.9739216,54.0089203 54.9439068,54.0089203 54.3108086,54.6461362 C54.0024602,54.9564901 53.8351648,55.3658931 53.8351648,55.8050108 C53.8351648,56.2408269 54.0057405,56.6502299 54.3108086,56.9572821 L58.8638675,61.5432559 C59.1722158,61.8503081 59.5789733,62.0186916 60.0119731,62.0186916 C60.4449729,62.0186916 60.8517304,61.8503081 61.1600787,61.5399542 C61.7964573,60.9027383 61.7964573,59.8660243 61.1600787,59.2288084 L56.6070198,54.6461362 Z" id="Fill-23"></path>
            <path d="M55.4597518,18.0560748 C55.8928654,18.0560748 56.3030108,17.8876382 56.6081591,17.5771864 L61.1624142,12.996371 C61.7956788,12.358954 61.7956788,11.3186102 61.1624142,10.6844959 C60.857266,10.3740441 60.4504017,10.2056075 60.0140069,10.2056075 C59.5776122,10.2056075 59.1707479,10.3740441 58.8623185,10.6844959 L54.3080633,15.2653113 C53.6780799,15.9027282 53.6780799,16.9397694 54.3047822,17.5738837 C54.6132116,17.8843355 55.023357,18.0560748 55.4597518,18.0560748" id="Fill-25"></path>
            <path d="M15.1723256,54.6449741 L10.6178306,59.2283686 C9.98453266,59.8689871 9.98453266,60.9058645 10.6178306,61.5431809 C10.9262762,61.8502816 11.3331619,62.0186916 11.7662984,62.0186916 C12.1961534,62.0186916 12.6030392,61.8535837 12.9180475,61.5431809 L17.4692612,56.9597864 C17.7744254,56.6526858 17.9450549,56.2432183 17.9450549,55.8073335 C17.9450549,55.3681466 17.7777068,54.9553769 17.4692612,54.6449741 C16.8392446,54.0076577 15.8056236,54.0109599 15.1723256,54.6449741" id="Fill-27"></path>
        </g>
    </g>
</svg>