<?xml version="1.0" encoding="UTF-8"?>
<svg width="85px" height="85px" viewBox="0 0 85 85" version="1.1" xmlns="http://www.w3.org/2000/svg" xmlns:xlink="http://www.w3.org/1999/xlink">
    <!-- Generator: Sketch 49.3 (51167) - http://www.bohemiancoding.com/sketch -->
    <title>ic_redesign@3x</title>
    <desc>Created with Sketch.</desc>
    <defs></defs>
    <g id="ic_redesign" stroke="none" stroke-width="1" fill="none" fill-rule="evenodd">
        <rect id="Rectangle" x="0" y="0" width="85" height="85"></rect>
        <g id="Page-1" fill="#FFFFFF">
            <path d="M42,29.80635 C34.342,29.80285 27.4295,34.40185 24.4825,41.47185 C24.1955,42.16485 24.521,42.95935 25.214,43.24635 C25.907,43.53335 26.698,43.20785 26.9885,42.51485 C30.4395,34.22685 39.9595,30.30335 48.2475,33.75435 C56.5355,37.20535 60.4555,46.72185 57.008,55.01335 C53.5535,63.30135 44.037,67.22485 35.749,63.77385 C32.4555,62.40185 29.708,59.99035 27.923,56.90335 L35.224,56.90335 L35.224,54.19435 L23.0335,54.19435 L23.0335,66.38835 L25.7425,66.38835 L25.7425,58.54135 C31.136,67.52235 42.791,70.42735 51.7685,65.03385 C60.7495,59.63685 63.6545,47.98535 58.261,39.00435 C54.831,33.29935 48.657,29.80635 42,29.80635" id="Fill-1"></path>
            <path d="M2.7104,13.54885 L2.7104,4.06385 C2.7104,3.31485 3.3159,2.70935 4.0649,2.70935 L79.9344,2.70935 C80.6834,2.70935 81.2889,3.31485 81.2889,4.06385 L81.2889,13.54885 L2.7104,13.54885 Z M81.2889,79.93685 C81.2889,80.68585 80.6834,81.28785 79.9344,81.28785 L4.0649,81.28785 C3.3159,81.28785 2.7104,80.68585 2.7104,79.93685 L2.7104,16.25785 L81.2889,16.25785 L81.2889,79.93685 Z M79.9344,0.00035 L4.0649,0.00035 C1.8214,0.00035 0.0014,1.82035 0.0014,4.06385 L0.0014,79.93685 C0.0014,82.18035 1.8214,84.00035 4.0649,84.00035 L79.9344,84.00035 C82.1814,84.00035 84.0014,82.18035 84.0014,79.93685 L84.0014,4.06385 C84.0014,1.82035 82.1814,0.00035 79.9344,0.00035 Z" id="Fill-3"></path>
            <polygon id="Fill-6" points="6.776 9.485 9.485 9.485 9.485 6.776 6.776 6.776"></polygon>
            <polygon id="Fill-8" points="13.5485 9.485 16.2575 9.485 16.2575 6.776 13.5485 6.776"></polygon>
            <polygon id="Fill-9" points="20.3245 9.485 23.0335 9.485 23.0335 6.776 20.3245 6.776"></polygon>
            <polygon id="Fill-10" points="31.1605 9.485 51.4815 9.485 51.4815 6.776 31.1605 6.776"></polygon>
        </g>
    </g>
</svg>