<?xml version="1.0" encoding="UTF-8"?>
<svg width="85px" height="85px" viewBox="0 0 85 85" version="1.1" xmlns="http://www.w3.org/2000/svg" xmlns:xlink="http://www.w3.org/1999/xlink">
    <!-- Generator: Sketch 49.3 (51167) - http://www.bohemiancoding.com/sketch -->
    <title>ic_startup@3x</title>
    <desc>Created with Sketch.</desc>
    <defs></defs>
    <g id="ic_startup" stroke="none" stroke-width="1" fill="none" fill-rule="evenodd">
        <g id="Page-1" transform="translate(8.000000, 1.000000)" fill="#FFFFFF">
            <path d="M27.763053,26.0492378 L28.0074565,26.4934665 C28.9850704,28.2768661 29.6443167,30.2061803 29.9723319,32.2262858 C30.1299078,33.0336795 30.8534708,33.6432779 31.6831563,33.6594907 C31.8021423,33.6692183 31.9018332,33.6692183 31.9918765,33.6627332 C32.9373322,33.5038485 33.5997943,32.5764807 33.4422183,31.5939896 C33.0370231,29.061562 32.1880425,26.6458661 30.9242192,24.4182377 C30.361448,23.4162914 29.3902657,22.741842 28.2679391,22.5667446 C27.1102384,22.3916472 25.9589693,22.7385995 25.0939096,23.5265379 C24.3735625,24.188017 23.5792511,24.7684326 22.7399181,25.2580569 C21.7623041,25.8352298 20.7075101,26.2567607 19.5980469,26.5194068 C12.9412676,28.0044924 7.46469991,20.682826 3.78578421,5.40719706 L3.68609331,4.99539386 L4.10093608,4.91433024 C17.6974882,2.25544343 23.8783238,4.03560057 26.6761006,5.99734023 C28.4222992,7.1873542 29.5735683,9.08424296 29.8308352,11.1983822 C30.0141378,12.4921576 29.9337419,13.7989032 29.5928633,15.0732234 L29.4642299,15.5466349 L29.0300921,15.332627 C25.8046092,13.7502651 22.3829604,12.6088893 18.8551889,11.9474101 C18.7426347,11.9376825 18.5914904,11.940925 18.4403461,11.9538952 C17.9000858,11.9506526 17.4595164,12.1160224 17.1122061,12.446762 C16.7681117,12.7775016 16.5687299,13.2249728 16.5558666,13.708112 C16.5397874,14.1880086 16.7134425,14.64845 17.0446736,14.9986448 C17.3726888,15.3488397 17.8132582,15.5466349 18.2924177,15.5596051 C21.8909375,16.2210843 25.2868597,17.4240684 28.4512418,19.1426172 C28.5798752,19.2171957 28.7085086,19.2788041 28.8403579,19.3306848 C29.5574891,19.6063011 30.3325055,19.5836033 31.0367734,19.272319 C31.7346097,18.9577921 32.2684384,18.3871042 32.5450002,17.6672593 C33.4229233,15.4526011 33.7187802,13.0401477 33.3971966,10.6860601 C32.9727063,7.61861267 31.2779611,4.84947934 28.7503145,3.09526256 C23.6532153,-0.490992086 14.9897548,-0.954676004 2.25826239,1.67178535 C1.48967773,1.85336787 0.849726481,2.3105667 0.441315385,2.96880331 C0.0329042881,3.62379737 -0.0989449635,4.40525069 0.0747101484,5.16076365 C5.36154356,28.299564 14.0442992,31.5031983 20.3955741,30.1283593 C21.8459158,29.7846495 23.2415884,29.2204467 24.5343542,28.4519636 C25.5537741,27.8650629 26.5088772,27.1711583 27.3868002,26.3864625 L27.763053,26.0492378 Z M36.5133411,39.7652027 C36.3911394,40.724996 37.0503856,41.6199383 38.0054888,41.7755805 C38.060158,41.778823 38.1630647,41.7755805 38.2627556,41.772338 C39.1664053,41.7658529 39.9060475,41.1303141 40.0475442,40.2548269 C40.3723436,38.237964 41.0315899,36.3086498 42.0124197,34.5220076 L42.2536073,34.0810215 L42.6298601,34.4150036 C43.5077831,35.202942 44.4661021,35.8968466 45.4790902,36.4772622 C46.7782877,37.2392602 48.1739603,37.7969779 49.6371654,38.13096 C55.9659295,39.5414671 64.6422534,36.3605305 69.9355185,13.2087601 C70.2699654,11.5810025 69.2698406,10.0375512 67.7133762,9.71005412 C55.0590639,7.08359277 46.4052508,7.55051923 41.2502667,11.1335313 C38.7258359,12.8909907 37.0343065,15.6568814 36.613032,18.7243289 C36.2914485,21.081659 36.5840895,23.4941124 37.4652284,25.699043 L37.5617035,25.9454764 L37.5231134,25.9843869 C37.5488401,26.0362676 37.5745668,26.0881483 37.6035093,26.1367865 C38.3785257,27.5213532 40.1343718,28.0174625 41.5075335,27.2295241 C44.6783472,25.5077328 48.0742694,24.3015061 51.6116884,23.6497546 C52.1519487,23.6302993 52.595734,23.4292615 52.9237492,23.0790667 C53.2517644,22.7288718 53.4254195,22.271673 53.4125562,21.7917764 C53.396477,21.3086372 53.200311,20.861166 52.8530008,20.5304264 C52.5056906,20.1964443 52.0554736,20.069985 51.5730983,20.0375596 C51.3672849,20.0245894 51.2097089,20.0213469 51.0489172,20.0375596 C47.5693833,20.6893111 44.1573819,21.8242018 40.9351148,23.4065637 L40.4977612,23.6205717 L40.3723436,23.1471601 C40.0314651,21.8760825 39.9510692,20.5725795 40.1343718,19.2658339 C40.3916386,17.1549372 41.5461235,15.2580484 43.295538,14.0680345 C46.1447682,12.1030523 52.3706255,10.3228951 65.8674867,12.988267 L66.2791136,13.0693306 L66.1794227,13.4811338 C62.500507,28.7600053 57.030371,36.0687015 50.3703759,34.5933436 C49.2641285,34.33394 48.2029028,33.9091666 47.2252889,33.3287511 C46.38274,32.8423693 45.5884286,32.2587113 44.8712973,31.6004746 C44.0062376,30.8092937 42.8517527,30.4558563 41.6972678,30.6406814 C40.5717254,30.8190213 39.6069748,31.4934707 39.0409878,32.4921745 C37.7707328,34.732773 36.9249681,37.1581966 36.5229886,39.7003518 L36.5133411,39.7652027 Z M25.5473424,80.3942901 C24.8334269,80.3942901 24.1934757,79.9111509 23.9908781,79.2204888 L18.8584048,61.3313687 C18.6397279,60.5628856 17.9322442,60.0278657 17.1411486,60.0246231 L12.7611808,60.0246231 C11.9797328,60.0246231 11.3429974,59.3825992 11.3429974,58.5946608 L11.3429974,49.9565212 C11.3429974,49.1685828 11.9797328,48.526559 12.7611808,48.526559 L57.1847311,48.526559 C57.9661791,48.533044 58.5964829,49.1750679 58.5964829,49.9565212 L58.5964829,58.5946608 C58.5964829,59.3825992 57.9597474,60.0246231 57.1750836,60.0246231 L52.7983316,60.0246231 C52.0426103,60.0570486 51.3801482,60.5823408 51.1679031,61.3281262 L46.0450773,79.2172463 C45.836048,79.9208785 45.2089601,80.3942901 44.4853971,80.3942901 L25.5537741,80.3942901 L25.5473424,80.3942901 Z M25.5505582,84 L44.4757496,84 L44.4982604,84 C46.7686402,84 48.8074799,82.4727614 49.4602945,80.2775585 L54.1747092,63.666001 L57.1686519,63.666001 L57.1750836,63.666001 C58.5096553,63.666001 59.7606153,63.1439513 60.702855,62.1971282 C61.6483107,61.2470625 62.169276,59.98247 62.1724918,58.6400564 L62.5744713,58.5946608 L62.1724918,58.5946608 L62.1724918,49.9565212 C62.1724918,47.1809028 59.9310546,44.920849 57.1750836,44.920849 L12.8415767,44.920849 C10.0920374,44.9240916 7.85381599,47.1841454 7.85381599,49.9565212 L7.85381599,58.6043885 C7.85381599,61.3800069 10.0952533,63.6400607 12.8480084,63.6400607 L15.8419511,63.6400607 L20.5756609,80.3002563 C21.2445546,82.5149144 23.2319409,84 25.5312632,84 L25.5505582,84 Z" id="Fill-1"></path>
        </g>
        <rect id="Rectangle" x="0" y="0" width="85" height="85"></rect>
    </g>
</svg>